<svg width="1512" height="670" viewBox="0 0 1512 670" fill="none" xmlns="http://www.w3.org/2000/svg">
<rect x="-0.5" y="0.5" width="11.201" height="36.8717" transform="matrix(-1 0 0 1 450.869 213.918)" fill="#202632" stroke="#202632"/>
<path d="M445.768 163.422V260.626" stroke="#202632"/>
<rect x="-0.5" y="0.5" width="11.201" height="21.723" transform="matrix(-1 0 0 1 468.493 191.195)" fill="#202632" stroke="#202632"/>
<path d="M463.392 162.16V332.582" stroke="#202632"/>
<rect x="-0.5" y="0.5" width="11.201" height="19.1983" transform="matrix(-1 0 0 1 503.74 248.002)" fill="#202632" stroke="#202632"/>
<path d="M498.639 217.705V284.612" stroke="#202632"/>
<rect x="-0.5" y="0.5" width="11.201" height="55.8076" transform="matrix(-1 0 0 1 521.364 191.195)" fill="#202632" stroke="#202632"/>
<path d="M516.263 188.67V251.789" stroke="#202632"/>
<rect x="-0.5" y="0.5" width="11.201" height="12.8863" transform="matrix(-1 0 0 1 538.987 177.309)" fill="#202632" stroke="#202632"/>
<path d="M533.887 165.947V202.556" stroke="#202632"/>
<rect x="-0.5" y="0.5" width="11.201" height="33.0846" transform="matrix(-1 0 0 1 574.234 192.457)" fill="#202632" stroke="#202632"/>
<path d="M569.134 183.62V295.973" stroke="#202632"/>
<rect x="-0.5" y="0.5" width="11.201" height="28.035" transform="matrix(-1 0 0 1 591.858 164.685)" fill="#202632" stroke="#202632"/>
<path d="M586.758 160.897V229.067" stroke="#202632"/>
<rect x="-0.5" y="0.5" width="11.201" height="94.9417" transform="matrix(-1 0 0 1 697.6 225.279)" fill="#202632" stroke="#202632"/>
<path d="M692.5 215.18V323.746" stroke="#202632"/>
<rect x="-0.5" y="0.5" width="11.201" height="41.9213" transform="matrix(-1 0 0 1 768.095 323.746)" fill="#202632" stroke="#202632"/>
<path d="M762.994 253.052V380.554" stroke="#202632"/>
<rect x="-0.5" y="0.5" width="11.201" height="81.0554" transform="matrix(-1 0 0 1 820.966 351.519)" fill="#202632" stroke="#202632"/>
<path d="M815.865 345.207V470.183" stroke="#202632"/>
<rect x="-0.5" y="0.5" width="11.201" height="10.3615" transform="matrix(-1 0 0 1 926.708 477.758)" fill="#202632" stroke="#202632"/>
<path d="M921.607 462.609V508.055" stroke="#202632"/>
<rect x="-0.5" y="0.5" width="11.201" height="43.1837" transform="matrix(-1 0 0 1 1014.83 515.629)" fill="#202632" stroke="#202632"/>
<path d="M1009.73 503.005V576.224" stroke="#202632"/>
<rect x="-0.5" y="0.5" width="11.201" height="14.1487" transform="matrix(-1 0 0 1 1032.45 500.481)" fill="#202632" stroke="#202632"/>
<path d="M1027.35 471.446V533.303" stroke="#202632"/>
<rect x="-0.5" y="0.5" width="11.201" height="29.2974" transform="matrix(-1 0 0 1 1085.32 511.842)" fill="#202632" stroke="#202632"/>
<path d="M1080.22 509.317V545.927" stroke="#202632"/>
<rect x="-0.5" y="0.5" width="11.201" height="16.6735" transform="matrix(-1 0 0 1 1138.19 528.253)" fill="#202632" stroke="#202632"/>
<path d="M1133.09 495.431V564.863" stroke="#202632"/>
<rect x="-0.5" y="0.5" width="11.201" height="16.6735" transform="matrix(-1 0 0 1 1155.82 510.58)" fill="#202632" stroke="#202632"/>
<path d="M1150.71 480.282V547.189" stroke="#202632"/>
<rect x="-0.5" y="0.5" width="11.201" height="34.347" transform="matrix(-1 0 0 1 1173.44 476.495)" fill="#202632" stroke="#202632"/>
<path d="M1168.34 374.241V523.204" stroke="#202632"/>
<rect x="-0.5" y="0.5" width="11.201" height="24.2478" transform="matrix(-1 0 0 1 1191.06 451.247)" fill="#202632" stroke="#202632"/>
<path d="M1185.96 332.583V635.556" stroke="#202632"/>
<rect x="-0.5" y="0.5" width="11.201" height="38.1341" transform="matrix(-1 0 0 1 1226.31 516.892)" fill="#202632" stroke="#202632"/>
<path d="M1221.21 415.9V583.798" stroke="#202632"/>
<rect x="-0.5" y="0.5" width="11.201" height="10.3615" transform="matrix(-1 0 0 1 1261.56 567.388)" fill="#202632" stroke="#202632"/>
<path d="M1256.46 530.778V602.735" stroke="#202632"/>
<rect x="-0.5" y="0.5" width="11.201" height="7.83676" transform="matrix(-1 0 0 1 1296.8 585.061)" fill="#202632" stroke="#202632"/>
<path d="M1291.7 504.268V597.685" stroke="#202632"/>
<rect x="-0.5" y="0.5" width="11.201" height="46.9709" transform="matrix(-1 0 0 1 1314.43 537.09)" fill="#202632" stroke="#202632"/>
<path d="M1309.33 508.055V596.423" stroke="#202632"/>
<rect x="-0.5" y="0.5" width="11.201" height="26.7726" transform="matrix(-1 0 0 1 1370.01 597.685)" fill="#202632" stroke="#202632"/>
<path d="M1364.91 592.635V669.641" stroke="#202632"/>
<rect x="-0.5" y="0.5" width="11.201" height="83.5802" transform="matrix(-1 0 0 1 1422.88 530.778)" fill="#202632" stroke="#202632"/>
<path d="M1417.78 514.367V617.883" stroke="#202632"/>
<rect x="-0.5" y="0.5" width="11.201" height="36.8718" transform="matrix(-1 0 0 1 1440.51 492.906)" fill="#202632" stroke="#202632"/>
<path d="M1435.4 490.381V538.352" stroke="#202632"/>
<rect x="-0.5" y="0.5" width="11.201" height="24.2478" transform="matrix(-1 0 0 1 1475.75 481.545)" fill="#202632" stroke="#202632"/>
<path d="M1470.65 479.02V508.055" stroke="#202632"/>
<rect x="-0.5" y="0.5" width="11.201" height="10.3615" transform="matrix(-1 0 0 1 1511 490.381)" fill="#202632" stroke="#202632"/>
<path d="M1505.9 458.822V528.253" stroke="#202632"/>
</svg>