<svg width="829" height="124" viewBox="0 0 829 124" fill="none" xmlns="http://www.w3.org/2000/svg">
<path d="M26.6081 103.053V23.979H0.630859V3.14011H76.5643V23.979H50.5871V103.053H26.6081Z" fill="white"/>
<path d="M86.308 103.053V40.2504L103.436 23.1226H143.686V44.8179H110.287V103.053H86.308Z" fill="white"/>
<path d="M151.926 85.9247V57.3783L201.311 55.951V43.1051H154.78V23.1226H208.162L225.29 40.2504V103.053H169.054L151.926 85.9247ZM175.905 70.5096V83.9264H201.311V67.655L175.905 70.5096Z" fill="white"/>
<path d="M313.728 3.14011V103.053H255.779L237.795 85.0683V41.1068L255.779 23.1226H289.749V3.14011H313.728ZM261.774 83.07H289.749V43.1051H261.774V83.07Z" fill="white"/>
<path d="M327.447 103.053V23.1226H351.426V103.053H327.447ZM327.447 15.7005V0H351.426V15.7005H327.447Z" fill="white"/>
<path d="M365.081 103.053V23.1226H422.745L439.873 40.2504V103.053H415.894V43.9615H389.06V103.053H365.081Z" fill="white"/>
<path d="M457.018 123.035V103.053H502.977V91.634H468.722L452.45 75.3625V39.394L469.293 23.1226H526.956V103.623L507.545 123.035H457.018ZM476.429 43.1051V72.5079H502.977V43.1051H476.429Z" fill="white"/>
<path d="M564.688 62.5166H595.232V22.2662H564.688V62.5166ZM619.211 20.5534V64.2294L601.798 81.6427H564.688V103.053H540.709V3.14011H601.798L619.211 20.5534Z" fill="white"/>
<path d="M630.056 103.053V3.14011H654.035V103.053H630.056Z" fill="white"/>
<path d="M666.263 85.9247V57.3783L715.648 55.951V43.1051H669.117V23.1226H722.499L739.627 40.2504V103.053H683.391L666.263 85.9247ZM690.242 70.5096V83.9264H715.648V67.655L690.242 70.5096Z" fill="white"/>
<path d="M753.274 103.053V23.1226H810.937L828.065 40.2504V103.053H804.086V43.9615H777.253V103.053H753.274Z" fill="white"/>
</svg> 
