<svg width="831" height="126" viewBox="0 0 831 126" fill="none" xmlns="http://www.w3.org/2000/svg">
<mask id="path-1-outside-1_817_22809" maskUnits="userSpaceOnUse" x="0.934937" y="0.947021" width="830" height="126" fill="black">
<rect fill="white" x="0.934937" y="0.947021" width="830" height="126"/>
<path d="M27.9122 105V25.926H1.93494V5.08713H77.8684V25.926H51.8911V105H27.9122Z"/>
<path d="M87.6121 105V42.1975L104.74 25.0696H144.99V46.7649H111.591V105H87.6121Z"/>
<path d="M153.23 87.8717V59.3253L202.615 57.898V45.0521H156.084V25.0696H209.466L226.594 42.1975V105H170.358L153.23 87.8717ZM177.209 72.4566V85.8735H202.615V69.602L177.209 72.4566Z"/>
<path d="M315.032 5.08713V105H257.083L239.099 87.0153V43.0538L257.083 25.0696H291.053V5.08713H315.032ZM263.078 85.0171H291.053V45.0521H263.078V85.0171Z"/>
<path d="M328.751 105V25.0696H352.73V105H328.751ZM328.751 17.6475V1.94702H352.73V17.6475H328.751Z"/>
<path d="M366.386 105V25.0696H424.049L441.177 42.1975V105H417.198V45.9085H390.365V105H366.386Z"/>
<path d="M458.322 124.982V105H504.281V93.581H470.026L453.754 77.3095V41.3411L470.597 25.0696H528.26V105.57L508.849 124.982H458.322ZM477.733 45.0521V74.4549H504.281V45.0521H477.733Z"/>
<path d="M565.992 64.4637H596.536V24.2132H565.992V64.4637ZM620.515 22.5004V66.1764L603.102 83.5897H565.992V105H542.013V5.08713H603.102L620.515 22.5004Z"/>
<path d="M631.36 105V5.08713H655.339V105H631.36Z"/>
<path d="M667.567 87.8717V59.3253L716.952 57.898V45.0521H670.422V25.0696H723.803L740.931 42.1975V105H684.695L667.567 87.8717ZM691.546 72.4566V85.8735H716.952V69.602L691.546 72.4566Z"/>
<path d="M754.578 105V25.0696H812.241L829.369 42.1975V105H805.39V45.9085H778.557V105H754.578Z"/>
</mask>
<path d="M27.9122 105V25.926H1.93494V5.08713H77.8684V25.926H51.8911V105H27.9122Z" fill="#1C1D1F"/>
<path d="M87.6121 105V42.1975L104.74 25.0696H144.99V46.7649H111.591V105H87.6121Z" fill="#1C1D1F"/>
<path d="M153.23 87.8717V59.3253L202.615 57.898V45.0521H156.084V25.0696H209.466L226.594 42.1975V105H170.358L153.23 87.8717ZM177.209 72.4566V85.8735H202.615V69.602L177.209 72.4566Z" fill="#1C1D1F"/>
<path d="M315.032 5.08713V105H257.083L239.099 87.0153V43.0538L257.083 25.0696H291.053V5.08713H315.032ZM263.078 85.0171H291.053V45.0521H263.078V85.0171Z" fill="#1C1D1F"/>
<path d="M328.751 105V25.0696H352.73V105H328.751ZM328.751 17.6475V1.94702H352.73V17.6475H328.751Z" fill="#1C1D1F"/>
<path d="M366.386 105V25.0696H424.049L441.177 42.1975V105H417.198V45.9085H390.365V105H366.386Z" fill="#1C1D1F"/>
<path d="M458.322 124.982V105H504.281V93.581H470.026L453.754 77.3095V41.3411L470.597 25.0696H528.26V105.57L508.849 124.982H458.322ZM477.733 45.0521V74.4549H504.281V45.0521H477.733Z" fill="#1C1D1F"/>
<path d="M565.992 64.4637H596.536V24.2132H565.992V64.4637ZM620.515 22.5004V66.1764L603.102 83.5897H565.992V105H542.013V5.08713H603.102L620.515 22.5004Z" fill="#1C1D1F"/>
<path d="M631.36 105V5.08713H655.339V105H631.36Z" fill="#1C1D1F"/>
<path d="M667.567 87.8717V59.3253L716.952 57.898V45.0521H670.422V25.0696H723.803L740.931 42.1975V105H684.695L667.567 87.8717ZM691.546 72.4566V85.8735H716.952V69.602L691.546 72.4566Z" fill="#1C1D1F"/>
<path d="M754.578 105V25.0696H812.241L829.369 42.1975V105H805.39V45.9085H778.557V105H754.578Z" fill="#1C1D1F"/>
<path d="M27.9122 105V25.926H1.93494V5.08713H77.8684V25.926H51.8911V105H27.9122Z" stroke="#6281BB" stroke-width="2" mask="url(#path-1-outside-1_817_22809)"/>
<path d="M87.6121 105V42.1975L104.74 25.0696H144.99V46.7649H111.591V105H87.6121Z" stroke="#6281BB" stroke-width="2" mask="url(#path-1-outside-1_817_22809)"/>
<path d="M153.23 87.8717V59.3253L202.615 57.898V45.0521H156.084V25.0696H209.466L226.594 42.1975V105H170.358L153.23 87.8717ZM177.209 72.4566V85.8735H202.615V69.602L177.209 72.4566Z" stroke="#6281BB" stroke-width="2" mask="url(#path-1-outside-1_817_22809)"/>
<path d="M315.032 5.08713V105H257.083L239.099 87.0153V43.0538L257.083 25.0696H291.053V5.08713H315.032ZM263.078 85.0171H291.053V45.0521H263.078V85.0171Z" stroke="#6281BB" stroke-width="2" mask="url(#path-1-outside-1_817_22809)"/>
<path d="M328.751 105V25.0696H352.73V105H328.751ZM328.751 17.6475V1.94702H352.73V17.6475H328.751Z" stroke="#6281BB" stroke-width="2" mask="url(#path-1-outside-1_817_22809)"/>
<path d="M366.386 105V25.0696H424.049L441.177 42.1975V105H417.198V45.9085H390.365V105H366.386Z" stroke="#6281BB" stroke-width="2" mask="url(#path-1-outside-1_817_22809)"/>
<path d="M458.322 124.982V105H504.281V93.581H470.026L453.754 77.3095V41.3411L470.597 25.0696H528.26V105.57L508.849 124.982H458.322ZM477.733 45.0521V74.4549H504.281V45.0521H477.733Z" stroke="#6281BB" stroke-width="2" mask="url(#path-1-outside-1_817_22809)"/>
<path d="M565.992 64.4637H596.536V24.2132H565.992V64.4637ZM620.515 22.5004V66.1764L603.102 83.5897H565.992V105H542.013V5.08713H603.102L620.515 22.5004Z" stroke="#6281BB" stroke-width="2" mask="url(#path-1-outside-1_817_22809)"/>
<path d="M631.36 105V5.08713H655.339V105H631.36Z" stroke="#6281BB" stroke-width="2" mask="url(#path-1-outside-1_817_22809)"/>
<path d="M667.567 87.8717V59.3253L716.952 57.898V45.0521H670.422V25.0696H723.803L740.931 42.1975V105H684.695L667.567 87.8717ZM691.546 72.4566V85.8735H716.952V69.602L691.546 72.4566Z" stroke="#6281BB" stroke-width="2" mask="url(#path-1-outside-1_817_22809)"/>
<path d="M754.578 105V25.0696H812.241L829.369 42.1975V105H805.39V45.9085H778.557V105H754.578Z" stroke="#6281BB" stroke-width="2" mask="url(#path-1-outside-1_817_22809)"/>
</svg> 
