<svg width="685" height="677" viewBox="0 0 685 677" fill="none" xmlns="http://www.w3.org/2000/svg">
<path d="M341.927 648.866C341.839 648.866 341.751 648.828 341.672 648.766C258.575 581.728 191.147 388.085 191.367 217.13C191.367 216.768 191.56 216.455 191.815 216.405C361.098 184.086 566.375 212.283 649.41 279.283C649.569 279.408 649.665 279.658 649.665 279.92C649.445 451 511.422 616.509 341.989 648.866C341.962 648.866 341.945 648.866 341.919 648.866H341.927ZM192.396 217.767C192.334 388.01 259.384 580.541 342.033 647.379C510.744 615.06 648.196 450.501 648.645 280.332C565.671 213.332 360.754 185.486 192.396 217.767Z" fill="#272C35"/>
<path d="M496.843 577.018C496.755 577.018 496.667 576.993 496.588 576.918C454.797 543.199 351.403 529.02 266.114 545.311C265.833 545.361 265.578 545.086 265.534 544.686C265.498 544.286 265.692 543.924 265.974 543.861C351.464 527.533 455.14 541.8 497.089 575.644C497.336 575.844 497.424 576.294 497.283 576.643C497.186 576.881 497.01 577.018 496.834 577.018H496.843Z" fill="#272C35"/>
<path d="M607.065 444.916C606.977 444.916 606.889 444.891 606.81 444.816C535.264 387.098 358.283 362.811 212.288 390.684C212.033 390.734 211.751 390.459 211.707 390.059C211.672 389.659 211.866 389.297 212.147 389.234C358.327 361.325 535.599 385.686 607.311 443.542C607.558 443.742 607.646 444.191 607.505 444.541C607.408 444.779 607.232 444.916 607.056 444.916H607.065Z" fill="#272C35"/>
<path d="M341.928 648.866C341.725 648.866 341.532 648.691 341.452 648.416C341.347 648.041 341.47 647.616 341.725 647.466C445.771 585.9 530.593 397.117 530.813 226.662C530.813 226.262 531.042 225.937 531.323 225.937C531.605 225.937 531.833 226.262 531.833 226.662C531.605 397.667 446.501 587.037 342.112 648.815C342.051 648.853 341.98 648.866 341.919 648.866H341.928Z" fill="#272C35"/>
<path d="M341.927 648.866C341.927 648.866 341.839 648.866 341.795 648.841C341.523 648.741 341.355 648.341 341.435 647.954C355.186 573.907 366.553 374.805 366.773 204.137C366.773 203.737 367.002 203.413 367.283 203.413C367.565 203.413 367.793 203.737 367.793 204.137C367.573 374.918 356.189 574.182 342.42 648.329C342.358 648.653 342.147 648.866 341.927 648.866Z" fill="#272C35"/>
<path d="M285.074 654.338C207.256 654.338 137.127 622.805 90.7345 565.075C54.2666 519.7 34.9898 461.769 34.9898 397.518C9.28191 376.692 -2.63939 353.492 0.510306 330.417C7.21442 281.344 80.5111 237.669 191.806 216.405C191.956 216.38 192.105 216.443 192.211 216.58C192.325 216.718 192.387 216.918 192.387 217.13C192.158 387.623 259.357 580.691 342.173 647.504C342.367 647.654 342.464 647.966 342.42 648.279C342.376 648.591 342.2 648.816 341.98 648.866C322.721 652.539 303.665 654.35 285 654.338H285.074Z" fill="#272C35"/>
<path d="M187.117 636.16C187.029 636.16 186.941 636.135 186.862 636.06C173.691 625.441 167.585 613.56 169.204 601.704C172.609 576.781 209.684 554.618 265.974 543.874C266.247 543.811 266.511 544.099 266.555 544.498C266.59 544.898 266.396 545.261 266.115 545.323C210.282 555.98 173.533 577.693 170.216 601.992C168.694 613.173 174.624 624.517 187.372 634.811C187.619 635.011 187.706 635.461 187.566 635.81C187.469 636.048 187.293 636.185 187.117 636.185V636.16Z" fill="#272C35"/>
<path d="M77.1854 546.097C77.0974 546.097 77.0094 546.072 76.9302 545.997C54.548 527.945 44.1664 507.806 46.9026 487.767C52.6917 445.353 116.012 407.599 212.148 389.247C212.42 389.184 212.684 389.472 212.728 389.871C212.763 390.271 212.57 390.634 212.288 390.696C116.609 408.973 53.6244 446.265 47.9233 488.055C45.2839 507.419 55.4897 527.02 77.4496 544.736C77.6959 544.936 77.7837 545.385 77.6429 545.735C77.5461 545.972 77.3704 546.11 77.1944 546.11L77.1854 546.097Z" fill="#272C35"/>
<path d="M341.927 648.866C341.927 648.866 341.866 648.866 341.831 648.866C184.574 607.326 56.8181 434.347 57.0468 263.279C57.0468 262.879 57.2752 262.554 57.5567 262.554C57.8383 262.554 58.0671 262.879 58.0671 263.279C57.8471 433.672 185.225 606.002 342.015 647.429C342.297 647.504 342.481 647.879 342.429 648.278C342.385 648.628 342.165 648.878 341.927 648.878V648.866Z" fill="#272C35"/>
<path d="M341.927 648.866H341.919C250.771 646.017 165.113 611.086 100.729 550.507C36.2744 489.866 0.835731 410.785 0.950105 327.831C0.950105 327.431 1.17892 327.106 1.46046 327.106C1.742 327.106 1.97082 327.431 1.97082 327.831C1.75086 498.174 154.256 641.532 341.936 647.404C342.217 647.404 342.446 647.741 342.438 648.153C342.438 648.553 342.2 648.866 341.927 648.866Z" fill="#272C35"/>
<path d="M396.818 672.015C379.495 672.015 360.957 664.295 341.822 648.891C242.043 667.893 148.194 636.56 90.7344 565.075C54.1785 519.6 34.9017 461.507 34.9897 397.093C34.9897 396.83 35.0865 396.593 35.2449 396.468C35.4032 396.343 35.5968 396.331 35.7552 396.468C118.633 463.331 323.618 491.453 492.708 459.171C492.858 459.146 493.007 459.208 493.113 459.346C493.227 459.483 493.289 459.683 493.289 459.895C493.166 555.218 472.182 627.14 435.714 657.211C423.723 667.093 410.649 672.028 396.818 672.015Z" fill="#272C35"/>
</svg>