<svg width="600" height="600" viewBox="0 0 600 600" fill="none" xmlns="http://www.w3.org/2000/svg">
  <defs>
    <!-- Radial gradient for the main sphere -->
    <radialGradient id="sphereGradient" cx="40%" cy="30%" r="70%">
      <stop offset="0%" style="stop-color:#4A5568;stop-opacity:1" />
      <stop offset="50%" style="stop-color:#2D3748;stop-opacity:1" />
      <stop offset="100%" style="stop-color:#1A202C;stop-opacity:1" />
    </radialGradient>
    
    <!-- Gradient for the atmosphere glow -->
    <radialGradient id="atmosphereGradient" cx="50%" cy="50%" r="50%">
      <stop offset="0%" style="stop-color:#4A5568;stop-opacity:0.3" />
      <stop offset="70%" style="stop-color:#2D3748;stop-opacity:0.1" />
      <stop offset="100%" style="stop-color:#1A202C;stop-opacity:0" />
    </radialGradient>
    
    <!-- Gradient for the surface details -->
    <linearGradient id="surfaceGradient" x1="0%" y1="0%" x2="100%" y2="100%">
      <stop offset="0%" style="stop-color:#4A5568;stop-opacity:0.8" />
      <stop offset="50%" style="stop-color:#2D3748;stop-opacity:0.6" />
      <stop offset="100%" style="stop-color:#1A202C;stop-opacity:0.4" />
    </linearGradient>
    
    <!-- Gradient for the highlights -->
    <radialGradient id="highlightGradient" cx="30%" cy="20%" r="40%">
      <stop offset="0%" style="stop-color:#718096;stop-opacity:0.6" />
      <stop offset="100%" style="stop-color:#4A5568;stop-opacity:0" />
    </radialGradient>
  </defs>
  
  <!-- Atmosphere glow -->
  <circle cx="300" cy="300" r="280" fill="url(#atmosphereGradient)" />
  
  <!-- Main sphere -->
  <circle cx="300" cy="300" r="250" fill="url(#sphereGradient)" />
  
  <!-- Surface details - continents and oceans -->
  <g opacity="0.7">
    <!-- Large continent -->
    <path d="M150 200 Q200 180 250 190 Q280 200 300 220 Q320 240 330 270 Q340 300 330 330 Q320 360 300 380 Q280 400 250 410 Q200 420 150 400 Q120 380 110 350 Q100 320 110 290 Q120 260 150 240 Q160 220 150 200 Z" 
          fill="url(#surfaceGradient)" />
    
    <!-- Second continent -->
    <path d="M400 150 Q450 130 480 140 Q500 150 510 170 Q520 190 510 210 Q500 230 480 240 Q450 250 400 240 Q370 230 360 210 Q350 190 360 170 Q370 150 400 150 Z" 
          fill="url(#surfaceGradient)" />
    
    <!-- Third continent -->
    <path d="M450 350 Q480 330 500 340 Q520 350 530 370 Q540 390 530 410 Q520 430 500 440 Q480 450 450 440 Q420 430 410 410 Q400 390 410 370 Q420 350 450 350 Z" 
          fill="url(#surfaceGradient)" />
    
    <!-- Small islands -->
    <circle cx="200" cy="320" r="15" fill="url(#surfaceGradient)" />
    <circle cx="380" cy="280" r="12" fill="url(#surfaceGradient)" />
    <circle cx="320" cy="180" r="10" fill="url(#surfaceGradient)" />
  </g>
  
  <!-- Highlights for 3D effect -->
  <circle cx="300" cy="300" r="250" fill="url(#highlightGradient)" />
  
  <!-- Additional shading for depth -->
  <circle cx="300" cy="300" r="250" fill="none" stroke="#1A202C" stroke-width="2" opacity="0.3" />
  
  <!-- Atmospheric ring -->
  <ellipse cx="300" cy="300" rx="260" ry="240" fill="none" stroke="#4A5568" stroke-width="1" opacity="0.4" />
</svg> 
