<svg width="685" height="677" viewBox="0 0 685 677" fill="none" xmlns="http://www.w3.org/2000/svg">
<path d="M341.927 648.866C341.839 648.866 341.751 648.828 341.672 648.766C258.575 581.728 191.147 388.085 191.367 217.13C191.367 216.768 191.56 216.455 191.815 216.405C361.098 184.086 566.375 212.283 649.41 279.283C649.569 279.408 649.665 279.658 649.665 279.92C649.445 451 511.422 616.509 341.989 648.866C341.962 648.866 341.945 648.866 341.919 648.866H341.927ZM192.396 217.767C192.334 388.01 259.384 580.541 342.033 647.379C510.744 615.06 648.196 450.501 648.645 280.332C565.671 213.682 361.221 185.635 192.396 217.755V217.767Z" fill="#272C35"/>
<path d="M496.843 577.018C496.755 577.018 496.667 576.993 496.588 576.918C454.797 543.199 351.403 529.02 266.114 545.311C265.833 545.361 265.578 545.086 265.534 544.686C265.498 544.286 265.692 543.924 265.974 543.861C351.464 527.533 455.14 541.8 497.089 575.644C497.336 575.844 497.424 576.294 497.283 576.643C497.186 576.881 497.01 577.018 496.834 577.018H496.843Z" fill="#272C35"/>
<path d="M607.065 444.916C606.977 444.916 606.889 444.891 606.81 444.816C535.264 387.098 358.283 362.811 212.288 390.684C212.033 390.734 211.751 390.459 211.707 390.059C211.672 389.659 211.866 389.297 212.147 389.234C358.327 361.325 535.599 385.686 607.311 443.542C607.558 443.742 607.646 444.191 607.505 444.541C607.408 444.779 607.232 444.916 607.056 444.916H607.065Z" fill="#272C35"/>
<path d="M341.928 648.866C341.725 648.866 341.532 648.691 341.452 648.416C341.347 648.041 341.47 647.616 341.725 647.466C445.771 585.9 530.593 397.117 530.813 226.662C530.813 226.262 531.042 225.937 531.323 225.937C531.605 225.937 531.833 226.262 531.833 226.662C531.605 397.667 446.501 587.037 342.112 648.815C342.051 648.853 341.98 648.866 341.919 648.866H341.928Z" fill="#272C35"/>
<path d="M341.927 648.866C341.927 648.866 341.839 648.866 341.795 648.841C341.523 648.741 341.355 648.341 341.435 647.954C355.186 573.907 366.553 374.805 366.773 204.137C366.773 203.737 367.002 203.413 367.283 203.413C367.565 203.413 367.793 203.737 367.793 204.137C367.573 374.918 356.189 574.182 342.42 648.329C342.358 648.653 342.147 648.866 341.927 648.866Z" fill="#272C35"/>
<path d="M285.074 654.338C207.256 654.338 137.127 622.805 90.7345 565.075C54.2666 519.7 34.9898 461.769 34.9898 397.518C9.28191 376.692 -2.63939 353.492 0.510306 330.417C7.21442 281.344 80.5111 237.669 191.806 216.405C191.956 216.38 192.105 216.443 192.211 216.58C192.325 216.718 192.387 216.918 192.387 217.13C192.158 387.623 259.357 580.691 342.173 647.504C342.367 647.654 342.464 647.966 342.42 648.279C342.376 648.591 342.2 648.816 341.98 648.866C322.721 652.539 303.665 654.35 285.066 654.35L285.074 654.338ZM191.366 217.954C80.8454 239.168 8.12053 282.331 1.522 330.68C-1.54852 353.167 10.2938 375.904 35.7553 396.456C35.9137 396.58 36.0105 396.83 36.0105 397.093C35.9313 461.082 55.0846 518.788 91.403 563.975C148.388 634.874 241.357 666.094 340.352 647.691C257.994 579.779 191.358 387.81 191.366 217.954Z" fill="#272C35"/>
<path d="M187.117 636.16C187.029 636.16 186.941 636.135 186.862 636.06C173.691 625.441 167.585 613.56 169.204 601.704C172.609 576.781 209.684 554.618 265.974 543.874C266.247 543.811 266.511 544.099 266.555 544.498C266.59 544.898 266.396 545.261 266.115 545.323C210.282 555.98 173.533 577.693 170.216 601.992C168.694 613.173 174.624 624.517 187.372 634.811C187.619 635.011 187.706 635.461 187.566 635.81C187.469 636.048 187.293 636.185 187.117 636.185V636.16Z" fill="#272C35"/>
<path d="M77.1854 546.097C77.0974 546.097 77.0094 546.072 76.9302 545.997C54.548 527.945 44.1664 507.806 46.9026 487.767C52.6917 445.353 116.012 407.599 212.148 389.247C212.42 389.184 212.684 389.472 212.728 389.871C212.763 390.271 212.57 390.634 212.288 390.696C116.609 408.973 53.6244 446.265 47.9233 488.055C45.2839 507.419 55.4897 527.02 77.4496 544.736C77.6959 544.936 77.7837 545.385 77.6429 545.735C77.5461 545.972 77.3704 546.11 77.1944 546.11L77.1854 546.097Z" fill="#272C35"/>
<path d="M341.927 648.866C341.927 648.866 341.866 648.866 341.831 648.866C184.574 607.326 56.8181 434.347 57.0468 263.279C57.0468 262.879 57.2752 262.554 57.5567 262.554C57.8383 262.554 58.0671 262.879 58.0671 263.279C57.8471 433.672 185.225 606.002 342.015 647.429C342.297 647.504 342.481 647.879 342.429 648.278C342.385 648.628 342.165 648.878 341.927 648.878V648.866Z" fill="#272C35"/>
<path d="M341.927 648.866H341.919C250.771 646.017 165.113 611.086 100.729 550.507C36.2744 489.866 0.835731 410.785 0.950105 327.831C0.950105 327.431 1.17892 327.106 1.46046 327.106C1.742 327.106 1.97082 327.431 1.97082 327.831C1.75086 498.174 154.256 641.532 341.936 647.404C342.217 647.404 342.446 647.741 342.438 648.153C342.438 648.553 342.2 648.866 341.927 648.866Z" fill="#272C35"/>
<path d="M396.818 672.015C379.495 672.015 360.957 664.295 341.822 648.891C242.043 667.893 148.194 636.56 90.7344 565.075C54.1785 519.6 34.9017 461.507 34.9897 397.093C34.9897 396.83 35.0865 396.593 35.2449 396.468C35.4032 396.343 35.5968 396.331 35.7552 396.468C118.633 463.331 323.618 491.453 492.708 459.171C492.858 459.146 493.007 459.208 493.113 459.346C493.227 459.483 493.289 459.683 493.289 459.895C493.166 555.218 472.182 627.14 435.714 657.211C423.723 667.093 410.649 672.028 396.818 672.028V672.015ZM341.927 647.404C342.015 647.404 342.103 647.442 342.182 647.504C376.328 675.051 408.493 677.975 435.204 655.949C471.241 626.228 492.022 555.105 492.268 460.72C323.618 492.765 119.451 464.83 36.019 398.355C36.1861 461.844 55.3219 519.1 91.4114 564C148.678 635.248 242.298 666.431 341.857 647.429C341.883 647.429 341.901 647.429 341.927 647.429V647.404Z" fill="#272C35"/>
<path d="M343.353 674.601C279.083 674.601 217.022 660.397 186.862 636.06C186.616 635.86 186.527 635.41 186.668 635.061C186.809 634.711 187.126 634.586 187.372 634.786C229.163 668.505 332.549 682.684 417.846 666.393C418.119 666.331 418.383 666.618 418.427 667.018C418.462 667.418 418.268 667.78 417.987 667.843C393.959 672.428 368.489 674.601 343.361 674.601H343.353Z" fill="#272C35"/>
<path d="M344.453 611.874C234.574 611.874 128.487 587.587 76.9392 546.01C76.6929 545.81 76.6047 545.361 76.7455 545.011C76.8862 544.661 77.2032 544.536 77.4496 544.736C148.995 602.454 325.985 626.741 471.971 598.869C472.253 598.806 472.508 599.093 472.552 599.493C472.587 599.893 472.394 600.255 472.112 600.318C431.008 608.163 387.44 611.886 344.461 611.886L344.453 611.874Z" fill="#272C35"/>
<path d="M277.667 668.542C253.639 668.542 231.441 659.472 212.403 641.42C193.724 623.705 179.04 598.406 168.756 566.236C158.119 532.967 152.761 493.976 152.813 450.351C152.813 449.951 153.042 449.626 153.324 449.626C153.605 449.626 153.834 449.951 153.834 450.351C153.72 536.503 174.721 603.928 212.957 640.195C247.894 673.34 293.626 675.913 341.716 647.454C341.98 647.304 342.279 647.479 342.385 647.841C342.491 648.216 342.367 648.641 342.112 648.791C319.853 661.958 298.096 668.53 277.658 668.53L277.667 668.542Z" fill="#272C35"/>
<path d="M332.038 676.85C331.924 676.85 331.809 676.85 331.686 676.813C322.378 675.089 316.703 596.945 316.862 472.876C316.862 472.476 317.09 472.151 317.372 472.151C317.653 472.151 317.882 472.476 317.882 472.876C317.697 610.937 324.745 674.064 331.81 675.364C333.455 675.664 336.86 672.515 341.417 647.941C341.487 647.554 341.76 647.317 342.042 647.417C342.314 647.517 342.482 647.916 342.402 648.304C338.839 667.481 335.443 676.838 332.021 676.838L332.038 676.85Z" fill="#272C35"/>
<path d="M396.819 672.015C379.443 672.015 360.861 664.245 341.672 648.766C341.479 648.616 341.382 648.303 341.426 647.991C341.47 647.679 341.646 647.454 341.866 647.404C389.261 638.359 434.175 618.882 474.294 591.76C485.925 556.829 492.207 511.854 492.277 459.87C492.277 459.508 492.471 459.196 492.726 459.146C543.851 449.376 586.918 434.922 619.136 417.419C637.999 373.805 648.592 327.056 648.654 279.895C648.654 279.633 648.751 279.395 648.909 279.27C649.067 279.145 649.261 279.133 649.419 279.27C675.303 300.159 687.312 323.433 684.154 346.583C680.547 373.006 657.619 397.88 619.84 418.518C589.584 488.255 538.282 550.008 475.059 592.834C465.408 621.643 452.132 643.656 435.723 657.186C423.732 667.068 410.658 672.003 396.827 672.003L396.819 672.015ZM343.511 648.553C377.164 675.114 408.837 677.675 435.204 655.924C451.129 642.794 464.08 621.568 473.59 593.821C434.096 620.319 389.991 639.446 343.511 648.541V648.553ZM493.298 460.507C493.183 511.654 487.051 556.017 475.746 590.773C537.816 548.421 588.238 487.805 618.292 419.355C586.197 436.608 543.649 450.85 493.298 460.507ZM649.674 281.157C649.428 327.581 639.064 373.568 620.676 416.582C657.382 396.318 679.632 372.044 683.142 346.308C686.178 324.045 674.608 301.545 649.665 281.157H649.674Z" fill="#272C35"/>
<path d="M417.916 667.843C417.661 667.843 417.441 667.58 417.406 667.206C417.371 666.806 417.564 666.443 417.846 666.381C473.678 655.724 510.427 634.011 513.744 609.712C515.275 598.531 509.337 587.187 496.588 576.893C496.342 576.693 496.254 576.243 496.394 575.894C496.535 575.544 496.852 575.419 497.098 575.619C510.269 586.238 516.375 598.119 514.756 609.975C511.351 634.899 474.276 657.061 417.987 667.805C417.96 667.805 417.942 667.805 417.916 667.805V667.843Z" fill="#272C35"/>
<path d="M472.032 600.317C471.777 600.317 471.557 600.055 471.522 599.68C471.487 599.28 471.68 598.918 471.962 598.856C567.641 580.578 630.626 543.286 636.327 501.497C638.976 482.133 628.761 462.531 606.801 444.816C606.555 444.616 606.466 444.166 606.607 443.817C606.748 443.467 607.065 443.342 607.311 443.542C629.694 461.594 640.075 481.733 637.339 501.772C631.55 544.186 568.23 581.94 472.103 600.292C472.076 600.292 472.059 600.292 472.032 600.292V600.317Z" fill="#272C35"/>
<path d="M409.426 657.998C387.51 657.998 364.934 654.95 341.831 648.84C341.549 648.766 341.364 648.391 341.417 647.991C341.47 647.591 341.743 647.341 342.015 647.404C432.169 671.216 515.047 648.153 569.41 584.114C606.722 540.163 626.491 481.233 626.579 413.721C626.579 413.321 626.808 412.996 627.09 412.996C627.371 412.996 627.6 413.321 627.6 413.721C627.512 481.683 607.611 541 570.052 585.238C543.948 615.984 509.794 638.146 471.294 649.328C451.402 655.1 430.726 657.985 409.417 657.985L409.426 657.998Z" fill="#272C35"/>
<path d="M353.884 649.053C349.898 649.053 345.922 648.991 341.919 648.866C341.637 648.866 341.408 648.528 341.417 648.116C341.417 647.716 341.654 647.404 341.927 647.404H341.936C458.695 651.064 566.048 601.03 629.13 513.578C664.094 465.105 682.614 408.261 682.693 349.182C682.693 348.782 682.922 348.457 683.203 348.457C683.485 348.457 683.714 348.782 683.714 349.182C683.634 408.661 665.009 465.867 629.843 514.628C568.741 599.343 466.235 649.066 353.884 649.066V649.053Z" fill="#272C35"/>
<path d="M649.155 280.644C649.067 280.644 648.979 280.607 648.9 280.544C566.022 213.681 361.036 185.56 191.947 217.842C191.797 217.879 191.648 217.804 191.542 217.667C191.428 217.529 191.366 217.329 191.366 217.117C191.49 121.782 212.473 49.8722 248.941 19.8014C275.942 -2.46129 308.415 0.412109 342.833 28.1093C442.612 9.10729 536.461 40.4399 593.921 111.925C630.477 157.4 649.744 215.493 649.665 279.907C649.665 280.17 649.569 280.407 649.41 280.532C649.331 280.594 649.243 280.632 649.155 280.632V280.644ZM339.64 203.012C466.34 203.012 588.668 230.884 648.636 278.671C648.469 215.181 629.333 157.925 593.243 113.037C535.977 41.7892 442.348 10.594 342.799 29.6085C342.684 29.6334 342.57 29.6084 342.473 29.521C308.328 1.97375 276.153 -0.949641 249.451 21.0757C213.414 50.7967 192.633 121.92 192.387 216.305C239.817 207.298 290.063 203.025 339.64 203.025V203.012Z" fill="#272C35"/>
<path d="M607.47 132.364C607.382 132.364 607.294 132.339 607.215 132.264C535.669 74.5463 358.688 50.2598 212.693 78.1318C212.429 78.1818 212.156 77.9069 212.112 77.5072C212.077 77.1074 212.271 76.7451 212.552 76.6826C358.732 48.7731 536.004 73.1346 607.716 130.99C607.963 131.19 608.051 131.64 607.91 131.989C607.813 132.227 607.637 132.364 607.461 132.364H607.47Z" fill="#272C35"/>
<path d="M497.538 42.3017C497.45 42.3017 497.362 42.2767 497.283 42.2017C455.501 8.49539 352.107 -5.68424 266.81 10.5942C266.528 10.6442 266.273 10.3694 266.229 9.96959C266.194 9.56981 266.387 9.20751 266.669 9.14504C352.151 -7.18341 455.835 7.07119 497.785 40.9274C498.031 41.1273 498.119 41.5771 497.978 41.9269C497.882 42.1642 497.705 42.3017 497.529 42.3017H497.538Z" fill="#272C35"/>
<path d="M531.331 227.374C531.05 227.374 530.821 227.049 530.821 226.649C530.936 140.497 509.935 73.072 471.698 36.8046C436.761 3.66048 391.029 1.08687 342.939 29.5461C342.675 29.696 342.376 29.5211 342.27 29.1588C342.165 28.784 342.288 28.3593 342.543 28.2094C390.968 -0.449749 437.034 2.18627 472.27 35.6053C490.948 53.3204 505.632 78.619 515.917 110.789C526.554 144.058 531.912 183.049 531.859 226.674C531.859 227.074 531.63 227.399 531.349 227.399L531.331 227.374Z" fill="#272C35"/>
<path d="M367.283 204.849C367.002 204.849 366.773 204.524 366.773 204.125C366.949 66.0635 359.911 2.93596 352.846 1.63668C351.21 1.36183 347.805 4.48511 343.239 29.059C343.168 29.4463 342.886 29.6837 342.614 29.5837C342.341 29.4838 342.174 29.084 342.253 28.6967C345.94 8.85768 349.441 -0.449658 352.986 0.199982C362.295 1.92403 367.97 80.0682 367.811 204.137C367.811 204.537 367.582 204.862 367.301 204.862L367.283 204.849Z" fill="#272C35"/>
<path d="M35.5001 397.817C35.4121 397.817 35.3241 397.78 35.2449 397.717C9.36107 376.829 -2.64824 353.554 0.510259 330.405C4.11746 303.982 27.0452 279.108 64.8241 258.47C95.0805 188.733 146.382 126.98 209.605 84.1536C219.256 55.3446 232.532 33.3318 248.941 19.8017C275.986 -2.4984 308.503 0.412485 342.992 28.2346C343.185 28.3845 343.282 28.6968 343.238 29.0091C343.194 29.3215 343.018 29.5463 342.798 29.5963C295.412 38.6413 250.489 58.118 210.37 85.2405C198.748 120.171 192.457 165.146 192.387 217.13C192.387 217.492 192.193 217.805 191.938 217.855C140.813 227.624 97.7374 242.079 65.5277 259.581C46.6647 303.195 36.072 349.944 36.0105 397.105C36.0105 397.368 35.9136 397.605 35.7553 397.73C35.6761 397.792 35.5881 397.83 35.5001 397.83V397.817ZM63.9881 260.406C27.2826 280.67 5.03237 304.944 1.52195 330.68C-1.51338 352.942 10.0561 375.442 34.9897 395.831C35.2361 349.407 45.6089 303.42 63.9881 260.406ZM208.918 86.215C146.848 128.567 96.4264 189.183 66.3723 257.632C98.4676 240.38 141.015 226.137 191.366 216.48C191.481 165.334 197.613 120.971 208.918 86.215ZM287.837 6.44664C274.173 6.44664 261.276 11.3065 249.451 21.0636C233.527 34.1938 220.576 55.4195 211.065 83.1666C250.559 56.6688 294.655 37.5419 341.144 28.447C322.589 13.8051 304.632 6.45915 287.837 6.45915V6.44664Z" fill="#272C35"/>
<path d="M77.5992 233.546C77.5112 233.546 77.4232 233.521 77.344 233.446C54.9618 215.393 44.5802 195.254 47.3164 175.215C53.1055 132.801 116.425 95.0474 212.561 76.6951C212.843 76.6326 213.098 76.9199 213.142 77.3197C213.177 77.7195 212.984 78.0818 212.702 78.1443C117.023 96.4216 54.0378 133.713 48.3367 175.503C45.6973 194.867 55.9031 214.469 77.863 232.184C78.1093 232.384 78.1975 232.834 78.0567 233.183C77.96 233.421 77.7838 233.558 77.6078 233.558L77.5992 233.546Z" fill="#272C35"/>
<path d="M187.812 101.444C187.724 101.444 187.636 101.419 187.557 101.344C174.386 90.7248 168.281 78.8438 169.899 66.9879C173.304 42.0642 210.379 19.9015 266.669 9.15747C266.942 9.095 267.206 9.38234 267.25 9.78212C267.285 10.1819 267.091 10.5442 266.81 10.6067C210.977 21.2633 174.228 42.9762 170.911 67.2753C169.389 78.4566 175.319 89.8003 188.067 100.095C188.314 100.294 188.401 100.744 188.261 101.094C188.164 101.331 187.988 101.469 187.812 101.469V101.444Z" fill="#272C35"/>
<path d="M57.557 263.991C57.2755 263.991 57.0471 263.666 57.0471 263.267C57.1351 195.304 77.036 135.987 114.595 91.7491C140.699 61.0036 174.853 38.8409 213.353 27.6596C253.701 15.9536 297.26 16.116 342.834 28.1468C343.115 28.2218 343.3 28.5966 343.247 28.9964C343.195 29.3962 342.93 29.6585 342.649 29.5836C252.495 5.77176 169.618 28.834 115.255 92.8735C77.9422 136.824 58.1644 195.754 58.0764 263.267C58.0764 263.666 57.8476 263.991 57.5661 263.991H57.557Z" fill="#272C35"/>
<path d="M1.46092 328.556C1.17938 328.556 0.950562 328.231 0.950562 327.831C1.02974 268.351 19.6552 211.146 54.821 162.385C118.097 74.6588 225.741 24.4741 342.755 28.1345C343.036 28.1345 343.265 28.4718 343.256 28.8841C343.256 29.2839 343.019 29.5962 342.746 29.5962H342.737C225.943 25.9232 118.625 75.9705 55.5427 163.422C20.5793 211.895 2.05905 268.739 1.97986 327.819C1.97986 328.218 1.75105 328.543 1.46951 328.543L1.46092 328.556Z" fill="#272C35"/>
<path d="M345.015 473.987C217.778 473.987 94.9397 445.878 35.2449 397.717C35.0866 397.592 34.9897 397.342 34.9897 397.08C35.2185 226 173.242 60.4915 342.666 28.1344C342.78 28.1094 342.895 28.1344 342.992 28.2219C426.098 95.2722 493.517 288.902 493.297 459.858C493.297 460.22 493.104 460.532 492.849 460.582C445.251 469.677 394.794 473.975 345.015 473.975V473.987ZM36.019 396.668C118.993 463.318 323.442 491.365 492.268 459.246C492.33 289.002 425.28 96.4715 342.631 29.6336C173.92 61.9532 36.4765 226.512 36.019 396.68V396.668Z" fill="#272C35"/>
<path d="M344.857 299.322C234.979 299.322 128.892 275.035 77.3439 233.458C77.0975 233.258 77.0094 232.808 77.1501 232.459C77.2909 232.109 77.6079 231.984 77.8542 232.184C149.4 289.902 326.39 314.188 472.376 286.316C472.658 286.266 472.913 286.541 472.957 286.941C472.992 287.341 472.799 287.703 472.517 287.765C431.413 295.611 387.844 299.334 344.866 299.334L344.857 299.322Z" fill="#272C35"/>
<path d="M344.056 139.885C279.786 139.885 217.725 125.68 187.565 101.344C187.319 101.144 187.231 100.694 187.372 100.344C187.513 99.9946 187.829 99.8696 188.076 100.07C229.866 133.788 333.252 147.968 418.549 131.677C418.822 131.615 419.086 131.902 419.13 132.302C419.165 132.701 418.972 133.064 418.69 133.126C394.663 137.711 369.192 139.885 344.065 139.885H344.056Z" fill="#272C35"/>
<path d="M153.324 451.075C153.042 451.075 152.813 450.75 152.813 450.35C153.042 279.345 238.146 89.9751 342.534 28.1968C342.798 28.0469 343.098 28.2218 343.203 28.5841C343.309 28.9589 343.186 29.3836 342.93 29.5336C238.885 91.0995 154.063 279.882 153.843 450.338C153.843 450.738 153.614 451.063 153.333 451.063L153.324 451.075Z" fill="#272C35"/>
<path d="M317.381 473.6C317.099 473.6 316.871 473.275 316.871 472.875C317.091 302.095 328.475 102.83 342.244 28.6841C342.314 28.2968 342.587 28.0594 342.869 28.1593C343.141 28.2593 343.309 28.659 343.23 29.0463C329.478 103.093 318.111 302.195 317.891 472.863C317.891 473.263 317.662 473.588 317.381 473.588V473.6Z" fill="#272C35"/>
<path d="M492.779 460.607C492.656 460.607 492.533 460.545 492.445 460.433C492.33 460.295 492.268 460.095 492.268 459.883C492.488 289.39 425.298 96.3217 342.482 29.5087C342.288 29.3588 342.192 29.0465 342.236 28.7341C342.28 28.4218 342.456 28.1969 342.675 28.147C442.525 9.08251 536.444 40.4027 593.939 111.926C630.407 157.3 649.683 215.231 649.683 279.483C675.391 300.309 687.313 323.508 684.163 346.583C677.459 395.656 604.162 439.332 492.867 460.595C492.84 460.595 492.823 460.595 492.796 460.595L492.779 460.607ZM344.303 29.3088C426.662 97.2212 493.298 289.19 493.289 459.046C603.81 437.833 676.535 394.669 683.133 346.321C686.204 323.833 674.362 301.096 648.9 280.545C648.742 280.42 648.645 280.17 648.645 279.908C648.733 215.918 629.571 158.212 593.253 113.025C536.268 42.1267 443.299 10.894 344.303 29.3088Z" fill="#272C35"/>
<path d="M472.446 287.753C472.191 287.753 471.971 287.491 471.936 287.116C471.901 286.716 472.094 286.354 472.376 286.291C568.055 268.014 631.04 230.722 636.741 188.933C639.389 169.569 629.174 149.967 607.214 132.252C606.968 132.052 606.88 131.602 607.021 131.252C607.162 130.903 607.478 130.778 607.725 130.977C630.107 149.03 640.489 169.169 637.753 189.208C631.964 231.622 568.644 269.376 472.517 287.728C472.49 287.728 472.473 287.728 472.446 287.728V287.753Z" fill="#272C35"/>
<path d="M418.611 133.139C418.356 133.139 418.136 132.876 418.101 132.502C418.065 132.102 418.259 131.739 418.541 131.677C474.373 121.02 511.122 99.3074 514.439 75.0084C515.961 63.8271 510.031 52.4833 497.283 42.1891C497.037 41.9892 496.949 41.5394 497.089 41.1896C497.23 40.8398 497.547 40.7148 497.793 40.9147C510.964 51.5339 517.07 63.4148 515.451 75.2707C512.046 100.194 474.971 122.357 418.681 133.101C418.655 133.101 418.637 133.101 418.611 133.101V133.139Z" fill="#272C35"/>
<path d="M627.098 414.458C626.816 414.458 626.588 414.133 626.588 413.733C626.808 243.34 499.43 71.0106 342.64 29.5835C342.358 29.5086 342.173 29.1338 342.226 28.734C342.279 28.3342 342.552 28.0719 342.825 28.1468C500.081 69.6863 627.837 242.666 627.608 413.733C627.608 414.133 627.38 414.458 627.098 414.458Z" fill="#272C35"/>
<path d="M683.203 349.906C682.922 349.906 682.693 349.581 682.693 349.181C682.913 178.838 530.408 35.4802 342.728 29.6084C342.446 29.6084 342.217 29.2711 342.226 28.8588C342.226 28.4591 342.525 28.1592 342.754 28.1467C433.902 30.9952 519.56 65.9258 583.944 126.505C648.398 187.146 683.837 266.227 683.723 349.181C683.723 349.581 683.494 349.906 683.212 349.906H683.203Z" fill="#272C35"/>
<path d="M339.024 677C335.83 676.962 331.563 676.85 328.396 676.712C326.249 676.625 323.619 676.462 321.155 676.3L317.786 676.1C314.442 675.85 310.026 675.463 306.788 675.126C304.544 674.888 301.808 674.551 299.239 674.226L295.764 673.789C292.121 673.289 287.318 672.54 283.816 671.94C281.415 671.528 278.476 670.953 275.731 670.416C274.411 670.153 273.136 669.904 271.974 669.691C267.707 668.792 262.217 667.53 258.293 666.543C255.61 665.868 252.337 664.956 249.284 664.107C247.832 663.707 246.442 663.32 245.175 662.97C239.703 661.346 233.148 659.234 228.476 657.598C225.432 656.523 221.781 655.124 218.262 653.775C216.617 653.138 215.024 652.526 213.582 651.989C207.441 649.452 198.458 645.567 191.613 642.219C188.155 640.532 184.037 638.346 180.052 636.222C178.196 635.235 176.392 634.273 174.764 633.424C165.834 628.202 153.297 620.631 144.138 614.159C140.434 611.548 136.062 608.188 131.83 604.927C129.859 603.415 127.95 601.941 126.226 600.642C119.698 595.17 107.442 584.676 98.4853 575.668C95.0012 572.17 90.9365 567.698 87.0126 563.375C85.1914 561.364 83.4231 559.427 81.8218 557.703C75.716 550.445 67.0323 539.613 60.9441 530.931C57.9879 526.72 54.6272 521.398 51.3719 516.251C49.8674 513.865 48.4069 511.566 47.0695 509.505C42.6265 501.872 36.3007 490.341 31.8049 480.771C29.5614 475.998 27.1159 470.039 24.7492 464.268C23.6495 461.582 22.5848 458.995 21.5995 456.672C18.7577 448.951 14.4642 436.333 11.6841 426.039C10.2676 420.804 8.8687 414.358 7.5226 408.124C6.89794 405.238 6.29061 402.439 5.71874 399.941C4.14389 390.946 2.00597 376.504 1.09977 365.247C0.651067 359.663 0.466583 352.904 0.281824 346.37C0.202642 343.322 0.11461 340.386 0.0090332 337.738C0.11461 326.756 0.75697 313.826 1.65437 304.756C2.19985 299.221 3.20271 292.663 4.17049 286.316C4.61919 283.368 5.05 280.532 5.41072 277.946C7.45187 267.252 10.3644 254.771 12.819 246.126C14.3059 240.904 16.3907 234.795 18.4055 228.885C19.3468 226.137 20.253 223.476 21.0449 221.065C25.0656 210.62 30.1951 198.715 34.1191 190.706C36.4506 185.934 39.5034 180.437 42.442 175.115C43.8145 172.642 45.1341 170.255 46.313 168.069C51.3279 159.836 58.956 147.943 65.3874 139.198C68.4315 135.062 72.2584 130.352 75.9712 125.792C77.7044 123.656 79.3761 121.607 80.8806 119.721C85.5699 114.474 97.4651 101.356 107.213 92.2485C110.75 88.9504 115.114 85.2275 119.337 81.617C121.308 79.9429 123.208 78.3188 124.915 76.8321C130.915 71.9973 138.754 66.0881 144.446 62.1028C154.573 55.0067 168.21 47.0486 180.219 40.1899C186.308 37.0416 195.22 32.6191 202.021 29.6208C210.872 25.7104 223.162 20.963 232.62 17.8023C237.054 16.3156 243.152 14.4416 247.771 13.1174C256.481 10.6313 267.997 8.08269 277.05 6.14626C280.886 5.42166 285.998 4.53465 289.781 3.95997C292.227 3.58518 295.227 3.1979 298.034 2.8356C299.362 2.6607 300.647 2.49826 301.808 2.33585C305.204 1.93607 309.788 1.48635 313.202 1.19901C315.454 1.01161 318.208 0.836695 320.786 0.674285L324.27 0.449418C330.692 0.224543 339.27 0.0496444 345.623 0.0246582C348.816 0.0621374 353.083 0.174551 356.25 0.311975C358.397 0.399426 361.028 0.561845 363.491 0.711762L366.87 0.911656C370.187 1.14902 374.603 1.5488 377.867 1.88611C380.102 2.12348 382.838 2.4608 385.399 2.78562L388.891 3.22288C392.542 3.72261 397.346 4.47217 400.839 5.07184C403.25 5.48411 406.197 6.0713 408.96 6.6085C410.27 6.87085 411.537 7.1082 412.681 7.33308C416.957 8.23258 422.456 9.49441 426.362 10.4814C429.037 11.156 432.31 12.068 435.363 12.9175C436.814 13.3173 438.222 13.717 439.489 14.0544C444.979 15.691 451.533 17.8023 456.188 19.4264C459.223 20.4883 462.856 21.8875 466.367 23.2368C468.03 23.8739 469.631 24.4861 471.082 25.0358C477.215 27.5719 486.198 31.4572 493.051 34.8054C496.509 36.492 500.635 38.6907 504.63 40.8146C506.486 41.8015 508.281 42.751 509.909 43.6005C518.83 48.8226 531.367 56.3934 540.535 62.8648C543.068 64.6513 545.919 66.7877 548.822 69.0114C552.086 71.3851 555.306 73.8462 558.465 76.3948C558.465 76.3948 558.474 76.3948 558.482 76.4073C567.131 83.7158 579.237 94.2474 587.894 103.068C591.361 106.603 595.399 111.101 599.305 115.461C601.118 117.485 602.86 119.434 604.452 121.17C610.488 128.441 619.066 139.31 625.083 148.03C628.004 152.265 631.33 157.6 634.55 162.772C636.046 165.183 637.498 167.507 638.826 169.581C643.208 177.227 649.436 188.795 653.862 198.39C656.07 203.175 658.481 209.159 660.804 214.956C661.886 217.654 662.942 220.265 663.91 222.601C666.69 230.322 670.886 242.953 673.605 253.297C674.986 258.544 676.332 265.003 677.643 271.249C678.25 274.148 678.831 276.946 679.394 279.47C681.215 290.139 682.851 302.794 683.573 311.764C684.022 317.361 684.206 324.12 684.391 330.667C684.47 333.702 684.558 336.626 684.655 339.274C684.461 347.307 683.784 367.484 681.831 382.538C681.118 388.035 679.922 394.531 678.761 400.828C678.224 403.738 677.705 406.549 677.265 409.098C674.889 419.755 671.599 432.135 668.88 440.681C667.235 445.84 664.974 451.849 662.792 457.671C661.772 460.382 660.786 462.993 659.924 465.379C655.542 475.786 650.035 487.592 645.865 495.488C643.392 500.173 640.19 505.557 637.102 510.767C635.668 513.178 634.278 515.514 633.046 517.65C627.679 525.883 619.576 537.702 612.854 546.26C609.705 550.27 605.754 554.842 601.927 559.252C600.15 561.301 598.434 563.288 596.894 565.099C591.853 570.384 579.105 583.564 569.066 592.346C565.486 595.482 561.069 599.005 556.793 602.416C554.805 604.003 552.878 605.539 551.145 606.951C543.701 612.498 534.948 618.632 528.815 622.567C518.742 629.039 505.254 636.26 493.395 642.456C482.072 647.678 473.009 651.601 466.446 654.112C462.108 655.774 456.073 657.923 451.428 659.459C447.073 660.909 441.081 662.745 436.524 664.032C427.937 666.468 416.552 668.967 407.596 670.891C403.778 671.615 398.666 672.502 394.865 673.077C392.419 673.452 389.419 673.839 386.613 674.201C385.284 674.376 384 674.539 382.838 674.701C379.442 675.101 374.867 675.55 371.445 675.838C369.184 676.025 366.404 676.2 363.808 676.363L360.377 676.575C353.954 676.8 345.376 676.975 339.024 677ZM345.631 1.46135C339.288 1.48634 330.719 1.66124 324.314 1.88611L320.838 2.11098C318.269 2.27339 315.516 2.44831 313.272 2.63571C309.859 2.92305 305.292 3.3728 301.905 3.77258C300.752 3.93499 299.459 4.09739 298.131 4.2723C295.333 4.6346 292.333 5.02187 289.896 5.39667C286.121 5.97135 281.019 6.84586 277.2 7.58296C268.165 9.51938 256.665 12.068 247.973 14.5416C243.354 15.8534 237.283 17.7398 232.849 19.214C223.418 22.3623 211.144 27.1096 202.32 31.0075C195.537 34.0058 186.642 38.4159 180.58 41.5516C168.606 48.3854 154.995 56.331 144.895 63.4145C139.22 67.3873 131.399 73.2841 125.434 78.0939C123.736 79.5681 121.836 81.1922 119.865 82.8787C115.651 86.4767 111.295 90.1872 107.776 93.4729C98.063 102.543 86.1856 115.636 81.5314 120.845C80.0533 122.707 78.3733 124.768 76.6401 126.904C72.9449 131.452 69.1266 136.149 66.1 140.259C59.6863 148.98 52.0847 160.823 47.1138 169.006C45.9525 171.155 44.6238 173.554 43.2513 176.04C40.3128 181.337 37.2775 186.821 34.9636 191.556C31.0573 199.527 25.9632 211.383 21.9689 221.752C21.1859 224.126 20.2795 226.799 19.3381 229.548C17.3321 235.432 15.2472 241.503 13.7779 246.688C11.332 255.283 8.43737 267.701 6.41382 278.296C6.0619 280.832 5.62229 283.68 5.17359 286.641C4.2058 292.962 3.21133 299.496 2.67465 304.981C1.78605 314.001 1.13511 326.856 1.03834 337.738C1.14391 340.349 1.22315 343.297 1.31113 346.345C1.48709 352.854 1.67178 359.576 2.12048 365.11C3.01788 376.304 5.14697 390.671 6.70422 399.566C7.2673 402.027 7.8744 404.825 8.49906 407.724C9.84516 413.933 11.2352 420.354 12.6429 425.551C15.4143 435.783 19.6815 448.339 22.4969 455.985C23.4647 458.271 24.5379 460.869 25.6376 463.568C27.9955 469.315 30.4416 475.261 32.6675 479.996C37.1369 489.516 43.4361 500.997 47.8527 508.58C49.1724 510.617 50.633 512.928 52.1374 515.314C55.3839 520.449 58.7446 525.758 61.6744 529.944C67.745 538.601 76.3934 549.395 82.4641 556.604C84.0477 558.315 85.8162 560.252 87.6462 562.263C91.5702 566.573 95.6173 571.033 99.0837 574.519C108.014 583.489 120.234 593.958 126.736 599.405C128.443 600.692 130.361 602.166 132.332 603.678C136.555 606.926 140.927 610.287 144.605 612.885C153.737 619.332 166.257 626.89 175.143 632.087C176.753 632.924 178.557 633.886 180.422 634.873C184.398 636.984 188.516 639.171 191.956 640.857C198.783 644.193 207.748 648.078 213.863 650.602C215.297 651.139 216.89 651.751 218.535 652.388C222.054 653.737 225.696 655.137 228.732 656.199C233.395 657.835 239.932 659.934 245.386 661.558C246.645 661.896 248.043 662.295 249.495 662.695C252.548 663.545 255.812 664.457 258.487 665.131C262.393 666.118 267.883 667.38 272.132 668.267C273.276 668.492 274.561 668.742 275.881 668.992C278.626 669.529 281.546 670.103 283.948 670.516C287.45 671.115 292.236 671.865 295.869 672.365L299.336 672.789C301.896 673.114 304.632 673.452 306.867 673.689C310.096 674.026 314.504 674.426 317.838 674.663L321.208 674.863C323.663 675.013 326.293 675.176 328.431 675.263C331.599 675.401 335.857 675.513 339.033 675.55C345.376 675.525 353.937 675.351 360.342 675.126L363.764 674.913C366.351 674.751 369.122 674.576 371.383 674.389C374.797 674.101 379.363 673.652 382.75 673.252C383.903 673.089 385.187 672.927 386.525 672.752C389.322 672.39 392.322 672.002 394.759 671.628C398.551 671.053 403.654 670.166 407.455 669.441C416.394 667.53 427.77 665.019 436.33 662.595C440.888 661.308 446.862 659.472 451.208 658.035C455.836 656.498 461.862 654.35 466.191 652.701C472.737 650.189 481.781 646.279 493.069 641.082C504.894 634.898 518.355 627.702 528.402 621.243C534.517 617.308 543.253 611.199 550.661 605.677C552.377 604.277 554.303 602.741 556.301 601.142C560.568 597.731 564.975 594.22 568.538 591.097C578.551 582.34 591.273 569.197 596.27 563.95C597.783 562.163 599.508 560.164 601.285 558.116C605.103 553.705 609.045 549.158 612.177 545.16C618.872 536.627 626.949 524.859 632.28 516.676C633.495 514.577 634.885 512.241 636.328 509.817C639.416 504.633 642.601 499.261 645.055 494.613C649.208 486.755 654.698 474.999 659.035 464.68C659.889 462.331 660.874 459.708 661.895 456.997C664.077 451.2 666.329 445.216 667.956 440.093C670.657 431.586 673.93 419.267 676.288 408.711C676.719 406.2 677.238 403.376 677.775 400.465C678.928 394.206 680.124 387.722 680.828 382.288C682.773 367.321 683.441 347.232 683.643 339.299C683.538 336.713 683.458 333.777 683.37 330.741C683.195 324.22 683.01 317.486 682.561 311.952C681.849 303.044 680.221 290.451 678.417 279.882C677.872 277.408 677.282 274.598 676.675 271.687C675.373 265.465 674.027 259.031 672.663 253.822C670.437 245.364 666.655 233.383 663.03 223.313C662.071 221.015 661.024 218.404 659.933 215.693C657.61 209.921 655.217 203.962 653.026 199.214C648.618 189.67 642.416 178.151 638.07 170.555C636.759 168.506 635.307 166.17 633.811 163.759C630.6 158.599 627.283 153.277 624.38 149.067C618.38 140.384 609.837 129.553 603.836 122.319C602.261 120.595 600.511 118.646 598.698 116.623C594.801 112.275 590.771 107.777 587.322 104.267C578.691 95.4718 566.612 84.9526 557.99 77.6691C556.265 76.3699 554.365 74.9082 552.394 73.3965C551.057 72.3721 549.711 71.3351 548.373 70.3107C501.339 36.1796 443.087 20.4758 380.524 24.711C368.761 25.5105 356.84 27.0097 344.813 29.2334C344.69 29.2584 344.576 29.2834 344.452 29.2959C344.417 29.2959 344.382 29.3084 344.347 29.3209C344.083 29.3709 343.819 29.4208 343.555 29.4708C343.309 29.5208 343.062 29.5583 342.825 29.6083C342.552 29.6582 342.288 29.3834 342.244 28.9836C342.244 28.9461 342.244 28.9211 342.244 28.8836C342.244 28.5213 342.429 28.209 342.693 28.1591C406.611 15.9533 467.634 23.9239 518.891 50.5217C515.566 48.5103 512.389 46.6238 509.565 44.9747C507.955 44.1377 506.16 43.1758 504.304 42.1888C500.319 40.065 496.201 37.8787 492.752 36.1921C485.916 32.8564 476.951 28.9711 470.845 26.4475C469.402 25.9103 467.792 25.2857 466.129 24.6485C462.619 23.2993 458.994 21.9125 455.968 20.8506C451.314 19.214 444.776 17.1152 439.313 15.4911C438.055 15.1413 436.647 14.754 435.187 14.3542C432.142 13.5047 428.878 12.5927 426.204 11.9181C422.306 10.9311 416.825 9.66929 412.558 8.78228C411.423 8.5699 410.156 8.32005 408.836 8.0577C406.082 7.5205 403.144 6.9458 400.733 6.52104C397.241 5.92137 392.446 5.17181 388.812 4.67209L385.328 4.23482C382.777 3.91 380.04 3.57269 377.815 3.33532C374.559 2.998 370.142 2.59823 366.843 2.36086L363.465 2.16096C361.01 2.01105 358.388 1.84863 356.242 1.76118C353.074 1.62375 348.816 1.51134 345.64 1.47386L345.631 1.46135Z" fill="#272C35"/>
<path d="M341.927 648.866C341.839 648.866 341.751 648.828 341.672 648.766C258.575 581.728 191.147 388.085 191.367 217.13C191.367 216.768 191.56 216.455 191.815 216.405C361.098 184.086 566.375 212.283 649.41 279.283C649.569 279.408 649.665 279.658 649.665 279.92C649.445 451 511.422 616.509 341.989 648.866C341.962 648.866 341.945 648.866 341.919 648.866H341.927ZM192.396 217.767C192.334 388.01 259.384 580.541 342.033 647.379C510.744 615.06 648.196 450.501 648.645 280.332C565.671 213.682 361.221 185.635 192.396 217.755V217.767Z" fill="#272C35"/>
<path d="M496.843 577.018C496.755 577.018 496.667 576.993 496.588 576.918C454.797 543.199 351.403 529.02 266.114 545.311C265.833 545.361 265.578 545.086 265.534 544.686C265.498 544.286 265.692 543.924 265.974 543.861C351.464 527.533 455.14 541.8 497.089 575.644C497.336 575.844 497.424 576.294 497.283 576.643C497.186 576.881 497.01 577.018 496.834 577.018H496.843Z" fill="#272C35"/>
<path d="M607.065 444.916C606.977 444.916 606.889 444.891 606.81 444.816C535.264 387.098 358.283 362.811 212.288 390.684C212.033 390.734 211.751 390.459 211.707 390.059C211.672 389.659 211.866 389.297 212.147 389.234C358.327 361.325 535.599 385.686 607.311 443.542C607.558 443.742 607.646 444.191 607.505 444.541C607.408 444.779 607.232 444.916 607.056 444.916H607.065Z" fill="#272C35"/>
<path d="M341.928 648.866C341.725 648.866 341.532 648.691 341.452 648.416C341.347 648.041 341.47 647.616 341.725 647.466C445.771 585.9 530.593 397.117 530.813 226.662C530.813 226.262 531.042 225.937 531.323 225.937C531.605 225.937 531.833 226.262 531.833 226.662C531.605 397.667 446.501 587.037 342.112 648.815C342.051 648.853 341.98 648.866 341.919 648.866H341.928Z" fill="#272C35"/>
<path d="M341.927 648.866C341.927 648.866 341.839 648.866 341.795 648.841C341.523 648.741 341.355 648.341 341.435 647.954C355.186 573.907 366.553 374.805 366.773 204.137C366.773 203.737 367.002 203.413 367.283 203.413C367.565 203.413 367.793 203.737 367.793 204.137C367.573 374.918 356.189 574.182 342.42 648.329C342.358 648.653 342.147 648.866 341.927 648.866Z" fill="#272C35"/>
<path d="M285.074 654.338C207.256 654.338 137.127 622.805 90.7345 565.075C54.2666 519.7 34.9898 461.769 34.9898 397.518C9.28191 376.692 -2.63939 353.492 0.510306 330.417C7.21442 281.344 80.5111 237.669 191.806 216.405C191.956 216.38 192.105 216.443 192.211 216.58C192.325 216.718 192.387 216.918 192.387 217.13C192.158 387.623 259.357 580.691 342.173 647.504C342.367 647.654 342.464 647.966 342.42 648.279C342.376 648.591 342.2 648.816 341.98 648.866C322.721 652.539 303.665 654.35 285.066 654.35L285.074 654.338ZM191.366 217.954C80.8454 239.168 8.12053 282.331 1.522 330.68C-1.54852 353.167 10.2938 375.904 35.7553 396.456C35.9137 396.58 36.0105 396.83 36.0105 397.093C35.9313 461.082 55.0846 518.788 91.403 563.975C148.388 634.874 241.357 666.094 340.352 647.691C257.994 579.779 191.358 387.81 191.366 217.954Z" fill="#272C35"/>
<path d="M187.117 636.16C187.029 636.16 186.941 636.135 186.862 636.06C173.691 625.441 167.585 613.56 169.204 601.704C172.609 576.781 209.684 554.618 265.974 543.874C266.247 543.811 266.511 544.099 266.555 544.498C266.59 544.898 266.396 545.261 266.115 545.323C210.282 555.98 173.533 577.693 170.216 601.992C168.694 613.173 174.624 624.517 187.372 634.811C187.619 635.011 187.706 635.461 187.566 635.81C187.469 636.048 187.293 636.185 187.117 636.185V636.16Z" fill="#272C35"/>
<path d="M77.1854 546.097C77.0974 546.097 77.0094 546.072 76.9302 545.997C54.548 527.945 44.1664 507.806 46.9026 487.767C52.6917 445.353 116.012 407.599 212.148 389.247C212.42 389.184 212.684 389.472 212.728 389.871C212.763 390.271 212.57 390.634 212.288 390.696C116.609 408.973 53.6244 446.265 47.9233 488.055C45.2839 507.419 55.4897 527.02 77.4496 544.736C77.6959 544.936 77.7837 545.385 77.6429 545.735C77.5461 545.972 77.3704 546.11 77.1944 546.11L77.1854 546.097Z" fill="#272C35"/>
<path d="M341.927 648.866C341.927 648.866 341.866 648.866 341.831 648.866C184.574 607.326 56.8181 434.347 57.0468 263.279C57.0468 262.879 57.2752 262.554 57.5567 262.554C57.8383 262.554 58.0671 262.879 58.0671 263.279C57.8471 433.672 185.225 606.002 342.015 647.429C342.297 647.504 342.481 647.879 342.429 648.278C342.385 648.628 342.165 648.878 341.927 648.878V648.866Z" fill="#272C35"/>
<path d="M341.927 648.866H341.919C250.771 646.017 165.113 611.086 100.729 550.507C36.2744 489.866 0.835731 410.785 0.950105 327.831C0.950105 327.431 1.17892 327.106 1.46046 327.106C1.742 327.106 1.97082 327.431 1.97082 327.831C1.75086 498.174 154.256 641.532 341.936 647.404C342.217 647.404 342.446 647.741 342.438 648.153C342.438 648.553 342.2 648.866 341.927 648.866Z" fill="#272C35"/>
<path d="M396.818 672.015C379.495 672.015 360.957 664.295 341.822 648.891C242.043 667.893 148.194 636.56 90.7344 565.075C54.1785 519.6 34.9017 461.507 34.9897 397.093C34.9897 396.83 35.0865 396.593 35.2449 396.468C35.4032 396.343 35.5968 396.331 35.7552 396.468C118.633 463.331 323.618 491.453 492.708 459.171C492.858 459.146 493.007 459.208 493.113 459.346C493.227 459.483 493.289 459.683 493.289 459.895C493.166 555.218 472.182 627.14 435.714 657.211C423.723 667.093 410.649 672.028 396.818 672.028V672.015ZM341.927 647.404C342.015 647.404 342.103 647.442 342.182 647.504C376.328 675.051 408.493 677.975 435.204 655.949C471.241 626.228 492.022 555.105 492.268 460.72C323.618 492.765 119.451 464.83 36.019 398.355C36.1861 461.844 55.3219 519.1 91.4114 564C148.678 635.248 242.298 666.431 341.857 647.429C341.883 647.429 341.901 647.429 341.927 647.429V647.404Z" fill="#272C35"/>
<path d="M343.353 674.601C279.083 674.601 217.022 660.397 186.862 636.06C186.616 635.86 186.527 635.41 186.668 635.061C186.809 634.711 187.126 634.586 187.372 634.786C229.163 668.505 332.549 682.684 417.846 666.393C418.119 666.331 418.383 666.618 418.427 667.018C418.462 667.418 418.268 667.78 417.987 667.843C393.959 672.428 368.489 674.601 343.361 674.601H343.353Z" fill="#272C35"/>
<path d="M344.453 611.874C234.574 611.874 128.487 587.587 76.9392 546.01C76.6929 545.81 76.6047 545.361 76.7455 545.011C76.8862 544.661 77.2032 544.536 77.4496 544.736C148.995 602.454 325.985 626.741 471.971 598.869C472.253 598.806 472.508 599.093 472.552 599.493C472.587 599.893 472.394 600.255 472.112 600.318C431.008 608.163 387.44 611.886 344.461 611.886L344.453 611.874Z" fill="#272C35"/>
<path d="M277.667 668.542C253.639 668.542 231.441 659.472 212.403 641.42C193.724 623.705 179.04 598.406 168.756 566.236C158.119 532.967 152.761 493.976 152.813 450.351C152.813 449.951 153.042 449.626 153.324 449.626C153.605 449.626 153.834 449.951 153.834 450.351C153.72 536.503 174.721 603.928 212.957 640.195C247.894 673.34 293.626 675.913 341.716 647.454C341.98 647.304 342.279 647.479 342.385 647.841C342.491 648.216 342.367 648.641 342.112 648.791C319.853 661.958 298.096 668.53 277.658 668.53L277.667 668.542Z" fill="#272C35"/>
<path d="M332.038 676.85C331.924 676.85 331.809 676.85 331.686 676.813C322.378 675.089 316.703 596.945 316.862 472.876C316.862 472.476 317.09 472.151 317.372 472.151C317.653 472.151 317.882 472.476 317.882 472.876C317.697 610.937 324.745 674.064 331.81 675.364C333.455 675.664 336.86 672.515 341.417 647.941C341.487 647.554 341.76 647.317 342.042 647.417C342.314 647.517 342.482 647.916 342.402 648.304C338.839 667.481 335.443 676.838 332.021 676.838L332.038 676.85Z" fill="#272C35"/>
<path d="M396.819 672.015C379.443 672.015 360.861 664.245 341.672 648.766C341.479 648.616 341.382 648.303 341.426 647.991C341.47 647.679 341.646 647.454 341.866 647.404C389.261 638.359 434.175 618.882 474.294 591.76C485.925 556.829 492.207 511.854 492.277 459.87C492.277 459.508 492.471 459.196 492.726 459.146C543.851 449.376 586.918 434.922 619.136 417.419C637.999 373.805 648.592 327.056 648.654 279.895C648.654 279.633 648.751 279.395 648.909 279.27C649.067 279.145 649.261 279.133 649.419 279.27C675.303 300.159 687.312 323.433 684.154 346.583C680.547 373.006 657.619 397.88 619.84 418.518C589.584 488.255 538.282 550.008 475.059 592.834C465.408 621.643 452.132 643.656 435.723 657.186C423.732 667.068 410.658 672.003 396.827 672.003L396.819 672.015ZM343.511 648.553C377.164 675.114 408.837 677.675 435.204 655.924C451.129 642.794 464.08 621.568 473.59 593.821C434.096 620.319 389.991 639.446 343.511 648.541V648.553ZM493.298 460.507C493.183 511.654 487.051 556.017 475.746 590.773C537.816 548.421 588.238 487.805 618.292 419.355C586.197 436.608 543.649 450.85 493.298 460.507ZM649.674 281.157C649.428 327.581 639.064 373.568 620.676 416.582C657.382 396.318 679.632 372.044 683.142 346.308C686.178 324.045 674.608 301.545 649.665 281.157H649.674Z" fill="#272C35"/>
<path d="M417.916 667.843C417.661 667.843 417.441 667.58 417.406 667.206C417.371 666.806 417.564 666.443 417.846 666.381C473.678 655.724 510.427 634.011 513.744 609.712C515.275 598.531 509.337 587.187 496.588 576.893C496.342 576.693 496.254 576.243 496.394 575.894C496.535 575.544 496.852 575.419 497.098 575.619C510.269 586.238 516.375 598.119 514.756 609.975C511.351 634.899 474.276 657.061 417.987 667.805C417.96 667.805 417.942 667.805 417.916 667.805V667.843Z" fill="#272C35"/>
<path d="M472.032 600.317C471.777 600.317 471.557 600.055 471.522 599.68C471.487 599.28 471.68 598.918 471.962 598.856C567.641 580.578 630.626 543.286 636.327 501.497C638.976 482.133 628.761 462.531 606.801 444.816C606.555 444.616 606.466 444.166 606.607 443.817C606.748 443.467 607.065 443.342 607.311 443.542C629.694 461.594 640.075 481.733 637.339 501.772C631.55 544.186 568.23 581.94 472.103 600.292C472.076 600.292 472.059 600.292 472.032 600.292V600.317Z" fill="#272C35"/>
<path d="M409.426 657.998C387.51 657.998 364.934 654.95 341.831 648.84C341.549 648.766 341.364 648.391 341.417 647.991C341.47 647.591 341.743 647.341 342.015 647.404C432.169 671.216 515.047 648.153 569.41 584.114C606.722 540.163 626.491 481.233 626.579 413.721C626.579 413.321 626.808 412.996 627.09 412.996C627.371 412.996 627.6 413.321 627.6 413.721C627.512 481.683 607.611 541 570.052 585.238C543.948 615.984 509.794 638.146 471.294 649.328C451.402 655.1 430.726 657.985 409.417 657.985L409.426 657.998Z" fill="#272C35"/>
<path d="M353.884 649.053C349.898 649.053 345.922 648.991 341.919 648.866C341.637 648.866 341.408 648.528 341.417 648.116C341.417 647.716 341.654 647.404 341.927 647.404H341.936C458.695 651.064 566.048 601.03 629.13 513.578C664.094 465.105 682.614 408.261 682.693 349.182C682.693 348.782 682.922 348.457 683.203 348.457C683.485 348.457 683.714 348.782 683.714 349.182C683.634 408.661 665.009 465.867 629.843 514.628C568.741 599.343 466.235 649.066 353.884 649.066V649.053Z" fill="#272C35"/>
<path d="M649.155 280.644C649.067 280.644 648.979 280.607 648.9 280.544C566.022 213.681 361.036 185.56 191.947 217.842C191.797 217.879 191.648 217.804 191.542 217.667C191.428 217.529 191.366 217.329 191.366 217.117C191.49 121.782 212.473 49.8722 248.941 19.8014C275.942 -2.46129 308.415 0.412109 342.833 28.1093C442.612 9.10729 536.461 40.4399 593.921 111.925C630.477 157.4 649.744 215.493 649.665 279.907C649.665 280.17 649.569 280.407 649.41 280.532C649.331 280.594 649.243 280.632 649.155 280.632V280.644ZM339.64 203.012C466.34 203.012 588.668 230.884 648.636 278.671C648.469 215.181 629.333 157.925 593.243 113.037C535.977 41.7892 442.348 10.594 342.799 29.6085C342.684 29.6334 342.57 29.6084 342.473 29.521C308.328 1.97375 276.153 -0.949641 249.451 21.0757C213.414 50.7967 192.633 121.92 192.387 216.305C239.817 207.298 290.063 203.025 339.64 203.025V203.012Z" fill="#272C35"/>
<path d="M607.47 132.364C607.382 132.364 607.294 132.339 607.215 132.264C535.669 74.5463 358.688 50.2598 212.693 78.1318C212.429 78.1818 212.156 77.9069 212.112 77.5072C212.077 77.1074 212.271 76.7451 212.552 76.6826C358.732 48.7731 536.004 73.1346 607.716 130.99C607.963 131.19 608.051 131.64 607.91 131.989C607.813 132.227 607.637 132.364 607.461 132.364H607.47Z" fill="#272C35"/>
<path d="M497.538 42.3017C497.45 42.3017 497.362 42.2767 497.283 42.2017C455.501 8.49539 352.107 -5.68424 266.81 10.5942C266.528 10.6442 266.273 10.3694 266.229 9.96959C266.194 9.56981 266.387 9.20751 266.669 9.14504C352.151 -7.18341 455.835 7.07119 497.785 40.9274C498.031 41.1273 498.119 41.5771 497.978 41.9269C497.882 42.1642 497.705 42.3017 497.529 42.3017H497.538Z" fill="#272C35"/>
<path d="M531.331 227.374C531.05 227.374 530.821 227.049 530.821 226.649C530.936 140.497 509.935 73.072 471.698 36.8046C436.761 3.66048 391.029 1.08687 342.939 29.5461C342.675 29.696 342.376 29.5211 342.27 29.1588C342.165 28.784 342.288 28.3593 342.543 28.2094C390.968 -0.449749 437.034 2.18627 472.27 35.6053C490.948 53.3204 505.632 78.619 515.917 110.789C526.554 144.058 531.912 183.049 531.859 226.674C531.859 227.074 531.63 227.399 531.349 227.399L531.331 227.374Z" fill="#272C35"/>
<path d="M367.283 204.849C367.002 204.849 366.773 204.524 366.773 204.125C366.949 66.0635 359.911 2.93596 352.846 1.63668C351.21 1.36183 347.805 4.48511 343.239 29.059C343.168 29.4463 342.886 29.6837 342.614 29.5837C342.341 29.4838 342.174 29.084 342.253 28.6967C345.94 8.85768 349.441 -0.449658 352.986 0.199982C362.295 1.92403 367.97 80.0682 367.811 204.137C367.811 204.537 367.582 204.862 367.301 204.862L367.283 204.849Z" fill="#272C35"/>
<path d="M35.5001 397.817C35.4121 397.817 35.3241 397.78 35.2449 397.717C9.36107 376.829 -2.64824 353.554 0.510259 330.405C4.11746 303.982 27.0452 279.108 64.8241 258.47C95.0805 188.733 146.382 126.98 209.605 84.1536C219.256 55.3446 232.532 33.3318 248.941 19.8017C275.986 -2.4984 308.503 0.412485 342.992 28.2346C343.185 28.3845 343.282 28.6968 343.238 29.0091C343.194 29.3215 343.018 29.5463 342.798 29.5963C295.412 38.6413 250.489 58.118 210.37 85.2405C198.748 120.171 192.457 165.146 192.387 217.13C192.387 217.492 192.193 217.805 191.938 217.855C140.813 227.624 97.7374 242.079 65.5277 259.581C46.6647 303.195 36.072 349.944 36.0105 397.105C36.0105 397.368 35.9136 397.605 35.7553 397.73C35.6761 397.792 35.5881 397.83 35.5001 397.83V397.817ZM63.9881 260.406C27.2826 280.67 5.03237 304.944 1.52195 330.68C-1.51338 352.942 10.0561 375.442 34.9897 395.831C35.2361 349.407 45.6089 303.42 63.9881 260.406ZM208.918 86.215C146.848 128.567 96.4264 189.183 66.3723 257.632C98.4676 240.38 141.015 226.137 191.366 216.48C191.481 165.334 197.613 120.971 208.918 86.215ZM287.837 6.44664C274.173 6.44664 261.276 11.3065 249.451 21.0636C233.527 34.1938 220.576 55.4195 211.065 83.1666C250.559 56.6688 294.655 37.5419 341.144 28.447C322.589 13.8051 304.632 6.45915 287.837 6.45915V6.44664Z" fill="#272C35"/>
<path d="M77.5992 233.546C77.5112 233.546 77.4232 233.521 77.344 233.446C54.9618 215.393 44.5802 195.254 47.3164 175.215C53.1055 132.801 116.425 95.0474 212.561 76.6951C212.843 76.6326 213.098 76.9199 213.142 77.3197C213.177 77.7195 212.984 78.0818 212.702 78.1443C117.023 96.4216 54.0378 133.713 48.3367 175.503C45.6973 194.867 55.9031 214.469 77.863 232.184C78.1093 232.384 78.1975 232.834 78.0567 233.183C77.96 233.421 77.7838 233.558 77.6078 233.558L77.5992 233.546Z" fill="#272C35"/>
<path d="M187.812 101.444C187.724 101.444 187.636 101.419 187.557 101.344C174.386 90.7248 168.281 78.8438 169.899 66.9879C173.304 42.0642 210.379 19.9015 266.669 9.15747C266.942 9.095 267.206 9.38234 267.25 9.78212C267.285 10.1819 267.091 10.5442 266.81 10.6067C210.977 21.2633 174.228 42.9762 170.911 67.2753C169.389 78.4566 175.319 89.8003 188.067 100.095C188.314 100.294 188.401 100.744 188.261 101.094C188.164 101.331 187.988 101.469 187.812 101.469V101.444Z" fill="#272C35"/>
<path d="M57.557 263.991C57.2755 263.991 57.0471 263.666 57.0471 263.267C57.1351 195.304 77.036 135.987 114.595 91.7491C140.699 61.0036 174.853 38.8409 213.353 27.6596C253.701 15.9536 297.26 16.116 342.834 28.1468C343.115 28.2218 343.3 28.5966 343.247 28.9964C343.195 29.3962 342.93 29.6585 342.649 29.5836C252.495 5.77176 169.618 28.834 115.255 92.8735C77.9422 136.824 58.1644 195.754 58.0764 263.267C58.0764 263.666 57.8476 263.991 57.5661 263.991H57.557Z" fill="#272C35"/>
<path d="M1.46092 328.556C1.17938 328.556 0.950562 328.231 0.950562 327.831C1.02974 268.351 19.6552 211.146 54.821 162.385C118.097 74.6588 225.741 24.4741 342.755 28.1345C343.036 28.1345 343.265 28.4718 343.256 28.8841C343.256 29.2839 343.019 29.5962 342.746 29.5962H342.737C225.943 25.9232 118.625 75.9705 55.5427 163.422C20.5793 211.895 2.05905 268.739 1.97986 327.819C1.97986 328.218 1.75105 328.543 1.46951 328.543L1.46092 328.556Z" fill="#272C35"/>
<path d="M345.015 473.987C217.778 473.987 94.9397 445.878 35.2449 397.717C35.0866 397.592 34.9897 397.342 34.9897 397.08C35.2185 226 173.242 60.4915 342.666 28.1344C342.78 28.1094 342.895 28.1344 342.992 28.2219C426.098 95.2722 493.517 288.902 493.297 459.858C493.297 460.22 493.104 460.532 492.849 460.582C445.251 469.677 394.794 473.975 345.015 473.975V473.987ZM36.019 396.668C118.993 463.318 323.442 491.365 492.268 459.246C492.33 289.002 425.28 96.4715 342.631 29.6336C173.92 61.9532 36.4765 226.512 36.019 396.68V396.668Z" fill="#272C35"/>
<path d="M344.857 299.322C234.979 299.322 128.892 275.035 77.3439 233.458C77.0975 233.258 77.0094 232.808 77.1501 232.459C77.2909 232.109 77.6079 231.984 77.8542 232.184C149.4 289.902 326.39 314.188 472.376 286.316C472.658 286.266 472.913 286.541 472.957 286.941C472.992 287.341 472.799 287.703 472.517 287.765C431.413 295.611 387.844 299.334 344.866 299.334L344.857 299.322Z" fill="#272C35"/>
<path d="M344.056 139.885C279.786 139.885 217.725 125.68 187.565 101.344C187.319 101.144 187.231 100.694 187.372 100.344C187.513 99.9946 187.829 99.8696 188.076 100.07C229.866 133.788 333.252 147.968 418.549 131.677C418.822 131.615 419.086 131.902 419.13 132.302C419.165 132.701 418.972 133.064 418.69 133.126C394.663 137.711 369.192 139.885 344.065 139.885H344.056Z" fill="#272C35"/>
<path d="M153.324 451.075C153.042 451.075 152.813 450.75 152.813 450.35C153.042 279.345 238.146 89.9751 342.534 28.1968C342.798 28.0469 343.098 28.2218 343.203 28.5841C343.309 28.9589 343.186 29.3836 342.93 29.5336C238.885 91.0995 154.063 279.882 153.843 450.338C153.843 450.738 153.614 451.063 153.333 451.063L153.324 451.075Z" fill="#272C35"/>
<path d="M317.381 473.6C317.099 473.6 316.871 473.275 316.871 472.875C317.091 302.095 328.475 102.83 342.244 28.6841C342.314 28.2968 342.587 28.0594 342.869 28.1593C343.141 28.2593 343.309 28.659 343.23 29.0463C329.478 103.093 318.111 302.195 317.891 472.863C317.891 473.263 317.662 473.588 317.381 473.588V473.6Z" fill="#272C35"/>
<path d="M492.779 460.607C492.656 460.607 492.533 460.545 492.445 460.433C492.33 460.295 492.268 460.095 492.268 459.883C492.488 289.39 425.298 96.3217 342.482 29.5087C342.288 29.3588 342.192 29.0465 342.236 28.7341C342.28 28.4218 342.456 28.1969 342.675 28.147C442.525 9.08251 536.444 40.4027 593.939 111.926C630.407 157.3 649.683 215.231 649.683 279.483C675.391 300.309 687.313 323.508 684.163 346.583C677.459 395.656 604.162 439.332 492.867 460.595C492.84 460.595 492.823 460.595 492.796 460.595L492.779 460.607ZM344.303 29.3088C426.662 97.2212 493.298 289.19 493.289 459.046C603.81 437.833 676.535 394.669 683.133 346.321C686.204 323.833 674.362 301.096 648.9 280.545C648.742 280.42 648.645 280.17 648.645 279.908C648.733 215.918 629.571 158.212 593.253 113.025C536.268 42.1267 443.299 10.894 344.303 29.3088Z" fill="#272C35"/>
<path d="M472.446 287.753C472.191 287.753 471.971 287.491 471.936 287.116C471.901 286.716 472.094 286.354 472.376 286.291C568.055 268.014 631.04 230.722 636.741 188.933C639.389 169.569 629.174 149.967 607.214 132.252C606.968 132.052 606.88 131.602 607.021 131.252C607.162 130.903 607.478 130.778 607.725 130.977C630.107 149.03 640.489 169.169 637.753 189.208C631.964 231.622 568.644 269.376 472.517 287.728C472.49 287.728 472.473 287.728 472.446 287.728V287.753Z" fill="#272C35"/>
<path d="M418.611 133.139C418.356 133.139 418.136 132.876 418.101 132.502C418.065 132.102 418.259 131.739 418.541 131.677C474.373 121.02 511.122 99.3074 514.439 75.0084C515.961 63.8271 510.031 52.4833 497.283 42.1891C497.037 41.9892 496.949 41.5394 497.089 41.1896C497.23 40.8398 497.547 40.7148 497.793 40.9147C510.964 51.5339 517.07 63.4148 515.451 75.2707C512.046 100.194 474.971 122.357 418.681 133.101C418.655 133.101 418.637 133.101 418.611 133.101V133.139Z" fill="#272C35"/>
<path d="M627.098 414.458C626.816 414.458 626.588 414.133 626.588 413.733C626.808 243.34 499.43 71.0106 342.64 29.5835C342.358 29.5086 342.173 29.1338 342.226 28.734C342.279 28.3342 342.552 28.0719 342.825 28.1468C500.081 69.6863 627.837 242.666 627.608 413.733C627.608 414.133 627.38 414.458 627.098 414.458Z" fill="#272C35"/>
<path d="M683.203 349.906C682.922 349.906 682.693 349.581 682.693 349.181C682.913 178.838 530.408 35.4802 342.728 29.6084C342.446 29.6084 342.217 29.2711 342.226 28.8588C342.226 28.4591 342.525 28.1592 342.754 28.1467C433.902 30.9952 519.56 65.9258 583.944 126.505C648.398 187.146 683.837 266.227 683.723 349.181C683.723 349.581 683.494 349.906 683.212 349.906H683.203Z" fill="#272C35"/>
<path d="M339.025 677L335.699 676.925C333.227 676.875 330.579 676.813 328.414 676.725C325.256 676.588 320.98 676.35 317.777 676.113L314.311 675.813C311.777 675.601 309.076 675.376 306.877 675.139C303.542 674.789 299.082 674.251 295.756 673.789C294.63 673.614 293.38 673.427 292.096 673.24C289.386 672.84 286.491 672.403 284.125 671.99C280.5 671.366 275.608 670.441 271.966 669.679C270.717 669.392 269.344 669.092 267.919 668.767C264.927 668.105 261.725 667.38 259.121 666.731C255.012 665.706 249.399 664.182 245.158 662.945C243.75 662.496 242.202 662.021 240.601 661.521C237.126 660.434 233.527 659.322 230.562 658.298C225.715 656.636 218.887 654.088 213.565 651.964C211.946 651.264 210.16 650.502 208.312 649.715C204.335 648.029 200.227 646.28 196.848 644.693C189.608 641.307 180.423 636.497 174.757 633.399C172.962 632.325 170.982 631.163 168.941 629.964C164.559 627.39 160.028 624.729 156.315 622.343C146.083 615.759 133.071 605.914 126.217 600.63C124.44 599.093 122.487 597.444 120.472 595.733C116.135 592.047 111.639 588.249 108.014 584.864C101.152 578.48 91.351 568.323 81.8139 557.691C80.2743 555.767 78.5673 553.693 76.8165 551.544C73.0421 546.935 69.1358 542.162 66.0389 537.977C59.5459 529.207 51.7596 517.139 47.0702 509.48C45.8649 507.257 44.519 504.87 43.1378 502.384C40.1464 497.037 37.058 491.503 34.6825 486.693C30.7234 478.685 25.5945 466.879 21.6002 456.635C20.7819 454.173 19.8581 451.512 18.9079 448.764C16.858 442.855 14.7377 436.733 13.2244 431.486C10.7346 422.853 7.78697 410.46 5.71943 399.891C5.34111 397.267 4.89265 394.419 4.42635 391.471C3.43218 385.124 2.39404 378.565 1.82217 373.031C0.643229 361.637 0.115089 346.87 0.0183105 337.688C0.132685 334.989 0.220734 332.054 0.308715 329.018C0.502272 322.484 0.713408 315.738 1.17091 310.153C1.90994 301.196 3.58143 288.528 5.42902 277.896C6.0009 275.335 6.59038 272.537 7.20624 269.638C8.52595 263.417 9.88095 256.995 11.271 251.773C14.0072 241.466 18.2568 228.761 21.0722 221.028C22.0488 218.679 23.0958 216.093 24.1867 213.419C26.5182 207.672 28.9288 201.726 31.1371 196.966C35.5801 187.384 41.9059 175.74 46.349 168.032C47.6775 165.958 49.1114 163.672 50.5895 161.311C53.7831 156.213 57.0912 150.929 59.9945 146.756C67.5696 135.837 77.9161 123.282 80.9075 119.696C82.4999 117.972 84.2246 116.061 86.0106 114.074C89.8378 109.839 93.7878 105.454 97.1839 102.006C106 93.0609 118.361 82.3794 124.942 76.8075C134.734 69.3616 148.987 58.68 159.905 51.8838C165.562 48.3482 173.551 43.7508 180.246 40.1652C181.707 39.4406 183.299 38.6286 184.953 37.7916C188.517 35.9801 192.203 34.1061 195.291 32.6694C204.089 28.5467 216.371 23.512 225.855 20.1264C234.759 16.9531 246.909 13.2177 256.103 10.844C264.118 8.77017 274.183 6.70879 277.069 6.13411C278.274 5.92172 279.594 5.69686 280.966 5.447C283.861 4.93479 286.967 4.38507 289.501 3.9853C293.143 3.42311 298.105 2.74849 301.836 2.31123L305.408 1.93645C308.038 1.6616 310.844 1.36175 313.141 1.17435C316.449 0.899505 320.927 0.599663 324.297 0.42476C330.71 0.199885 339.289 0.0249862 345.65 0L348.984 0.0749554C351.456 0.124928 354.104 0.187398 356.269 0.274849C359.462 0.412273 363.738 0.649668 366.906 0.887036L370.355 1.18686C372.888 1.39924 375.598 1.62413 377.806 1.86149C381.132 2.2113 385.601 2.74849 388.927 3.21073C390.053 3.38563 391.294 3.57303 392.578 3.76043C395.288 4.16021 398.191 4.59747 400.549 5.00974C404.174 5.63439 409.066 6.55889 412.708 7.32096C413.958 7.60831 415.33 7.90811 416.755 8.23293C419.747 8.89507 422.949 9.61967 425.553 10.2693C429.662 11.2937 435.275 12.8179 439.516 14.0547C440.932 14.5045 442.498 14.9917 444.117 15.4914C447.584 16.5658 451.164 17.6902 454.129 18.7021C458.959 20.3637 465.796 22.9123 471.127 25.0361C472.755 25.7482 474.541 26.5103 476.397 27.2974C480.365 28.984 484.474 30.733 487.852 32.3071C495.102 35.6927 504.287 40.515 509.944 43.6008C511.739 44.6752 513.71 45.8371 515.751 47.0364C520.141 49.61 524.672 52.2711 528.385 54.6697C538.608 61.2536 551.63 71.0981 558.483 76.3827C558.483 76.3827 558.483 76.3827 558.492 76.3827C561.826 79.0687 565.082 81.8422 568.24 84.6906C571.249 87.2642 574.179 89.8128 576.695 92.149C586.821 101.569 599.5 115.586 604.479 121.17C606.01 123.107 607.69 125.193 609.432 127.354C613.18 132.002 617.052 136.812 620.131 141.022C625.603 148.53 633.39 159.974 638.862 169.606C638.862 169.606 638.862 169.606 638.871 169.619C640.05 171.817 641.37 174.229 642.742 176.727C645.698 182.099 648.751 187.659 651.083 192.481C654.98 200.514 660.022 212.332 663.928 222.602C664.729 225.063 665.635 227.724 666.567 230.485C668.573 236.432 670.658 242.566 672.136 247.825C674.564 256.47 677.424 268.901 679.412 279.47C679.773 282.106 680.204 284.967 680.644 287.928C681.594 294.275 682.58 300.846 683.107 306.38C683.978 315.463 684.594 328.368 684.665 339.262C684.55 341.948 684.462 344.871 684.374 347.907C684.181 354.454 683.97 361.212 683.512 366.797C682.324 381.214 679.096 399.466 677.274 409.073C676.623 411.61 675.955 414.37 675.26 417.231C673.755 423.39 672.207 429.749 670.667 434.909C667.623 445.103 662.986 457.684 659.934 465.355C658.887 467.666 657.769 470.202 656.608 472.838C654.118 478.485 651.54 484.332 649.208 488.992C644.484 498.424 637.771 509.955 633.055 517.613C631.674 519.637 630.187 521.861 628.639 524.172C625.313 529.144 621.873 534.279 618.873 538.352C610.972 549.046 600.063 561.514 596.904 565.075C595.285 566.724 593.534 568.56 591.722 570.447C587.816 574.519 583.778 578.742 580.329 582.04C571.707 590.286 559.715 600.118 551.163 606.926C541.415 613.872 527.241 623.817 516.428 630.138C509.205 634.361 499.8 639.258 493.413 642.432C491.961 643.094 490.377 643.831 488.732 644.593C485.222 646.217 481.588 647.904 478.553 649.203C469.878 652.913 457.816 657.398 448.543 660.384C444.17 661.796 438.196 663.57 433.674 664.807C427.498 666.493 418.735 668.542 407.614 670.866C406.418 671.078 405.107 671.303 403.752 671.541C400.849 672.053 397.734 672.615 395.191 673.002C391.575 673.564 386.622 674.227 382.857 674.676L379.294 675.051C376.663 675.326 373.847 675.626 371.551 675.813C368.234 676.088 363.756 676.388 360.404 676.563C353.99 676.788 345.412 676.963 339.06 676.988L339.025 677ZM345.623 1.46171C339.289 1.48669 330.719 1.66159 324.314 1.88647C320.962 2.06137 316.493 2.36121 313.193 2.63606C310.897 2.82346 308.091 3.12327 305.469 3.39812L301.897 3.77293C298.175 4.21019 293.222 4.8848 289.588 5.4345C287.063 5.82178 283.967 6.37148 281.072 6.8837C279.7 7.13356 278.38 7.35842 277.183 7.5708C274.306 8.14548 264.268 10.2069 256.261 12.2807C247.094 14.6544 234.961 18.3773 226.084 21.5381C216.618 24.9112 204.362 29.9459 195.581 34.0561C192.511 35.4929 188.833 37.3668 185.27 39.1658C183.616 40.0028 182.015 40.8149 180.563 41.5395C173.894 45.1125 165.923 49.71 160.275 53.233C149.4 60.0168 135.165 70.6734 125.408 78.0943C118.862 83.6412 106.528 94.2978 97.7385 103.205C94.3688 106.628 90.4184 111.001 86.6 115.236C84.814 117.223 83.0806 119.134 81.5145 120.846C78.5496 124.406 68.2383 136.924 60.6896 147.793C57.8038 151.941 54.5135 157.213 51.3198 162.298C49.8329 164.671 48.3988 166.958 47.0879 169.006C42.68 176.652 36.3807 188.258 31.9641 197.79C29.7733 202.513 27.3716 208.447 25.0489 214.169C23.9668 216.842 22.9108 219.428 21.943 221.752C19.1628 229.423 14.9311 242.053 12.2037 252.31C10.8312 257.482 9.47621 263.891 8.1565 270.088C7.54064 272.986 6.95115 275.797 6.37928 278.321C4.54929 288.853 2.88663 301.446 2.15639 310.353C1.69889 315.888 1.49635 322.609 1.30279 329.118C1.21481 332.166 1.11796 335.102 1.01239 337.763C1.10917 346.845 1.63708 361.537 2.80722 372.856C3.3703 378.328 4.40005 384.862 5.39423 391.183C5.86052 394.144 6.30919 396.993 6.67871 399.579C8.72865 410.048 11.6584 422.379 14.1394 430.961C15.6439 436.158 17.7552 442.255 19.7963 448.152C20.7553 450.913 21.6793 453.574 22.48 455.997C26.4391 466.167 31.5508 477.91 35.4923 485.881C37.8502 490.653 40.9293 496.163 43.9119 501.497C45.302 503.983 46.6392 506.382 47.8358 508.581C52.4987 516.189 60.2588 528.207 66.7254 536.953C69.8047 541.113 73.702 545.873 77.4587 550.47C79.2183 552.619 80.9251 554.705 82.4471 556.604C91.9402 567.173 101.706 577.305 108.551 583.677C112.167 587.037 116.645 590.835 120.974 594.508C122.997 596.22 124.951 597.881 126.702 599.393C133.511 604.653 146.506 614.472 156.712 621.044C160.407 623.417 164.929 626.078 169.302 628.639C171.352 629.839 173.331 631.001 175.108 632.075C180.748 635.148 189.916 639.958 197.139 643.331C200.508 644.905 204.608 646.654 208.576 648.341C210.424 649.128 212.21 649.89 213.828 650.59C219.125 652.701 225.944 655.25 230.774 656.911C233.73 657.923 237.319 659.047 240.794 660.122C242.404 660.622 243.953 661.109 245.352 661.546C249.575 662.783 255.17 664.295 259.27 665.319C261.866 665.969 265.059 666.681 268.051 667.343C269.476 667.655 270.857 667.968 272.098 668.255C275.731 669.017 280.606 669.941 284.222 670.566C286.58 670.966 289.474 671.403 292.175 671.803C293.46 671.99 294.709 672.178 295.835 672.353C299.143 672.802 303.595 673.34 306.921 673.689C309.12 673.914 311.821 674.152 314.346 674.364L317.812 674.664C321.006 674.901 325.273 675.139 328.423 675.276C330.578 675.363 333.218 675.426 335.69 675.476L339.007 675.551C345.342 675.526 353.911 675.351 360.316 675.126C363.659 674.951 368.129 674.651 371.437 674.377C373.733 674.189 376.54 673.889 379.17 673.614L382.733 673.24C386.481 672.802 391.435 672.128 395.033 671.578C397.567 671.191 400.681 670.641 403.576 670.116C404.931 669.879 406.242 669.642 407.43 669.442C418.515 667.118 427.269 665.082 433.428 663.395C437.941 662.158 443.906 660.384 448.27 658.985C457.517 656.012 469.552 651.527 478.21 647.829C481.236 646.542 484.861 644.855 488.363 643.231C490.008 642.469 491.6 641.732 493.034 641.082C499.404 637.922 508.783 633.037 515.988 628.827C526.766 622.53 540.922 612.598 550.635 605.677C559.143 598.906 571.117 589.086 579.704 580.878C583.135 577.593 587.165 573.382 591.071 569.322C592.884 567.423 594.643 565.587 596.244 563.963C599.376 560.427 610.251 547.996 618.125 537.352C621.108 533.317 624.539 528.182 627.856 523.223C629.404 520.911 630.891 518.675 632.263 516.689C636.944 509.093 643.631 497.599 648.338 488.217C650.66 483.582 653.221 477.76 655.702 472.138C656.863 469.502 657.989 466.954 659.018 464.68C662.036 457.084 666.664 444.566 669.681 434.422C671.203 429.312 672.752 422.966 674.248 416.844C674.943 413.983 675.62 411.21 676.254 408.724C677.697 401.09 681.225 381.576 682.448 366.722C682.905 361.187 683.107 354.454 683.31 347.932C683.398 344.896 683.495 341.961 683.6 339.312C683.53 328.518 682.923 315.688 682.052 306.655C681.524 301.183 680.547 294.637 679.597 288.303C679.148 285.329 678.726 282.469 678.365 279.87C676.394 269.401 673.553 257.033 671.133 248.437C669.664 243.228 667.596 237.106 665.59 231.184C664.658 228.423 663.752 225.75 662.96 223.326C659.08 213.144 654.056 201.363 650.185 193.38C647.863 188.596 644.818 183.049 641.88 177.689C640.507 175.19 639.179 172.779 638.008 170.581C632.571 160.998 624.812 149.605 619.374 142.134C616.322 137.936 612.451 133.151 608.72 128.516C606.969 126.355 605.289 124.256 603.776 122.345C601.25 119.521 596.728 114.487 591.564 109.002C628.199 152.94 648.443 209.859 649.596 273.723C649.631 275.672 649.648 277.621 649.648 279.583V279.945C649.428 451.025 511.405 616.534 341.972 648.891C341.717 648.941 341.435 648.666 341.391 648.266C341.391 648.228 341.391 648.204 341.391 648.166C341.391 647.804 341.576 647.491 341.84 647.441C510.78 615.184 648.408 450.326 648.628 279.945V279.583C648.646 201.289 619.999 133.064 567.659 85.9649C566.34 84.8405 565.011 83.7037 563.692 82.5918C561.668 80.8802 559.706 79.2186 557.946 77.6945C551.11 72.4224 538.116 62.5903 527.928 56.0315C524.232 53.6578 519.701 50.9968 515.329 48.4232C513.279 47.2239 511.308 46.062 509.531 45.0001C503.9 41.9268 494.732 37.117 487.5 33.7438C484.14 32.1697 480.04 30.4332 476.072 28.7466C474.216 27.9595 472.421 27.1975 470.811 26.4853C465.497 24.3615 458.678 21.8254 453.866 20.1638C450.918 19.1519 447.337 18.04 443.88 16.9656C442.261 16.4659 440.695 15.9787 439.287 15.5289C435.064 14.2921 429.468 12.7804 425.369 11.756C422.773 11.1064 419.579 10.3943 416.588 9.73212C415.163 9.41979 413.79 9.10745 412.541 8.82011C408.907 8.05803 404.033 7.13358 400.417 6.50892C398.06 6.10914 395.165 5.67186 392.455 5.27208C391.171 5.08468 389.921 4.89729 388.804 4.72238C385.496 4.27263 381.035 3.72297 377.719 3.38565C375.51 3.16078 372.809 2.9234 370.276 2.71102L366.835 2.41119C363.677 2.18632 359.41 1.93643 356.225 1.79901C354.069 1.71156 351.421 1.64909 348.958 1.59911L345.632 1.52416L345.623 1.46171Z" fill="#272C35"/>
<path d="M5.19076 394.781C4.96201 394.781 4.75101 394.556 4.68943 394.219C4.67183 394.119 4.65418 394.019 4.63659 393.919C1.46049 374.73 1.42528 373.855 0 337.738L0.158519 333.703C0.167318 326.594 0.448803 319.423 0.985484 312.377C1.01188 311.99 1.24932 311.69 1.53966 311.727C1.8212 311.765 2.02379 312.102 2.00619 312.489L1.18782 333.665V333.69C1.17023 349.531 2.4901 365.46 5.10312 381.039C5.12072 381.114 5.12051 381.201 5.11172 381.289C4.79499 385.361 4.97103 389.497 5.63968 393.569C5.65728 393.669 5.67493 393.769 5.69252 393.869C5.75411 394.257 5.58679 394.656 5.31405 394.744C5.27006 394.756 5.23475 394.769 5.19076 394.769V394.781ZM2.67464 371.919C3.00017 375.954 3.40507 379.302 3.96814 383.175C3.99454 382.538 4.02983 381.901 4.07382 381.264C3.55474 378.166 3.08835 375.042 2.66605 371.907L2.67464 371.919Z" fill="#272C35"/>
</svg>
